<?xml version="1.0" encoding="utf-8"?>
<!-- Generator: Adobe Illustrator 19.1.0, SVG Export Plug-In . SVG Version: 6.00 Build 0)  -->
<svg version="1.1" xmlns="http://www.w3.org/2000/svg" xmlns:xlink="http://www.w3.org/1999/xlink" x="0px" y="0px"
	 viewBox="0 0 800 200" style="enable-background:new 0 0 800 200;" xml:space="preserve">
<style type="text/css">
	.st0{fill:#FFFFFF;}
	.st1{display:none;}
	.st2{display:inline;fill:#EDF9FC;}
</style>
<g id="clouds">
	<circle class="st0" cx="400" cy="96.3" r="72"/>
	<circle class="st0" cx="400" cy="200.3" r="103.7"/>
	<circle class="st0" cx="132" cy="116.3" r="103.7"/>
	<circle class="st0" cx="217" cy="100.3" r="50"/>
	<circle class="st0" cx="267" cy="166.3" r="98"/>
	<circle class="st0" cx="570" cy="187.3" r="98"/>
	<circle class="st0" cx="685" cy="150.3" r="82"/>
	<circle class="st0" cx="747" cy="100.3" r="31"/>
	<circle class="st0" cx="328" cy="112.3" r="37"/>
	<circle class="st0" cx="472" cy="116.3" r="37"/>
	<circle class="st0" cx="800" cy="153.3" r="84"/>
	<circle class="st0" cx="0" cy="153.3" r="84"/>
</g>
<g id="accents" class="st1">
	<path class="st2" d="M6.2,84.7C0.9,80.5,2,79.3,2,72c22,0,58.8,12,74.8,55C45.2,79.3,11.8,89.2,6.2,84.7z"/>
	<path class="st2" d="M321.2,89.3"/>
	<path class="st2" d="M680,81c4.1-1.1,6-3.7,6-11c-22,0-58.8,12-74.8,55C642.8,77.3,671.5,83.3,680,81z"/>
	<path class="st2" d="M622.4,103.6c-13.8-4.3-30.3-5.3-49.1,0.2c19.4-1,34.1,1.6,45.3,5.8"/>
	<path class="st2" d="M132.2,29.6C64.2,29.6,43.5,69,43.5,69c18-30.2,51-50.4,88.7-50.4c38,0,71.1,20.4,89.1,50.9
		C221.4,69.5,200.7,29.6,132.2,29.6z"/>
	<path class="st2" d="M508.5,122.5c0-19.6-16.6-35.5-36.2-35.5S436,102.8,436,122.5v-5.8c0-19.6,16.6-35.5,36.2-35.5
		s35.9,15.9,35.9,35.5L508.5,122.5z"/>
</g>
</svg>
