<?xml version="1.0" encoding="utf-8"?>
<!-- Generator: Adobe Illustrator 15.1.0, SVG Export Plug-In . SVG Version: 6.00 Build 0)  -->
<!DOCTYPE svg PUBLIC "-//W3C//DTD SVG 1.1//EN" "http://www.w3.org/Graphics/SVG/1.1/DTD/svg11.dtd">
<svg version="1.1" xmlns="http://www.w3.org/2000/svg" xmlns:xlink="http://www.w3.org/1999/xlink" x="0px" y="0px" width="309px"
	 height="270px" viewBox="0 0 309 270" enable-background="new 0 0 309 270" xml:space="preserve">
<g id="desktop">
	<rect x="12" y="39" fill="#E6E6E6" width="183" height="218"/>
	<rect x="12" y="13" fill="#00A99D" width="183" height="26"/>
	<rect x="12" y="13" fill="#006837" width="26" height="26"/>
	<g>
		<rect x="143" y="112" fill="#CCCCCC" width="42" height="12"/>
		<rect x="95" y="112" fill="#CCCCCC" width="42" height="12"/>
		<rect x="12" y="39" fill="#CCCCCC" width="183" height="65"/>
	</g>
	<g>
		<rect x="23" y="132" fill="#CCCCCC" width="162" height="23"/>
		<rect x="143" y="234" fill="#CCCCCC" width="42" height="12"/>
		<rect x="95" y="234" fill="#CCCCCC" width="42" height="12"/>
		<rect x="23" y="163" fill="#FFFFFF" width="162" height="65"/>
	</g>
	<defs>
		<filter id="Adobe_OpacityMaskFilter" filterUnits="userSpaceOnUse" x="12" y="13" width="183" height="244">
			<feColorMatrix  type="matrix" values="1 0 0 0 0  0 1 0 0 0  0 0 1 0 0  0 0 0 1 0"/>
		</filter>
	</defs>
	<mask maskUnits="userSpaceOnUse" x="12" y="13" width="183" height="244" id="SVGID_1_">
		<g filter="url(#Adobe_OpacityMaskFilter)">
			<linearGradient id="SVGID_2_" gradientUnits="userSpaceOnUse" x1="110.8213" y1="141.0078" x2="61.1092" y2="100.2123">
				<stop  offset="0" style="stop-color:#FFFFFF"/>
				<stop  offset="1" style="stop-color:#000000"/>
			</linearGradient>
			<polygon fill="url(#SVGID_2_)" points="12,257 12,13 195,13 			"/>
		</g>
	</mask>
	<polygon opacity="0.31" mask="url(#SVGID_1_)" fill="#F2F2F2" points="12,257 12,13 195,13 	"/>
</g>
<g id="mobile">
	<g>
		<rect x="211" y="33" fill="#E6E6E6" width="85" height="143"/>
		<rect x="211" y="16" fill="#00A99D" width="85" height="17"/>
		<rect x="211" y="16" fill="#006837" width="17" height="17"/>
		<g>
			<rect x="211" y="33" fill="#CCCCCC" width="85" height="43"/>
		</g>
		<g>
			<rect x="216" y="81" fill="#CCCCCC" width="75" height="15"/>
			<rect x="216" y="95" fill="#FFFFFF" width="75" height="43"/>
			<rect x="269" y="127" fill="#CCCCCC" width="19" height="8"/>
			<rect x="247" y="127" fill="#CCCCCC" width="19" height="8"/>
		</g>
		<rect x="211" y="163" fill="#FF931E" width="85" height="13"/>
		<defs>
			<filter id="Adobe_OpacityMaskFilter_1_" filterUnits="userSpaceOnUse" x="211" y="16" width="85" height="160">
				<feColorMatrix  type="matrix" values="1 0 0 0 0  0 1 0 0 0  0 0 1 0 0  0 0 0 1 0"/>
			</filter>
		</defs>
		<mask maskUnits="userSpaceOnUse" x="211" y="16" width="85" height="160" id="SVGID_3_">
			<g filter="url(#Adobe_OpacityMaskFilter_1_)">
				<linearGradient id="SVGID_4_" gradientUnits="userSpaceOnUse" x1="268.7588" y1="108.5225" x2="236.1606" y2="81.7713">
					<stop  offset="0" style="stop-color:#FFFFFF"/>
					<stop  offset="1" style="stop-color:#000000"/>
				</linearGradient>
				<polygon fill="url(#SVGID_4_)" points="211,176 211,16 296,16 				"/>
			</g>
		</mask>
		<polygon opacity="0.58" mask="url(#SVGID_3_)" fill="#F2F2F2" points="211,176 211,16 296,16 		"/>
	</g>
</g>
</svg>
