<?xml version="1.0" encoding="utf-8"?>
<!-- Generator: Adobe Illustrator 19.1.0, SVG Export Plug-In . SVG Version: 6.00 Build 0)  -->
<svg version="1.1" xmlns="http://www.w3.org/2000/svg" xmlns:xlink="http://www.w3.org/1999/xlink" x="0px" y="0px"
	 viewBox="0 0 800 800" style="enable-background:new 0 0 800 800;" xml:space="preserve">
<style type="text/css">
	.st0{fill:#FFFFFF;}
	.st1{opacity:0.29;}
	.st2{opacity:0.43;fill:#FFFFFF;}
	.st3{fill:#292E78;}
</style>
<g id="trail">
	<circle class="st0" cx="370.5" cy="385.5" r="54"/>
	<circle class="st0" cx="323.5" cy="426.5" r="27"/>
	<circle class="st0" cx="305.5" cy="404.5" r="27"/>
	<circle class="st0" cx="313.5" cy="383.5" r="20"/>
	<circle class="st0" cx="274" cy="439" r="50.5"/>
	<circle class="st0" cx="278" cy="468" r="39.5"/>
	<circle class="st0" cx="243" cy="507" r="41.5"/>
	<circle class="st0" cx="247.5" cy="468.5" r="35"/>
	<circle class="st0" cx="218" cy="439.5" r="25"/>
	<circle class="st0" cx="178" cy="576" r="61.5"/>
	<circle class="st0" cx="217" cy="543" r="37.5"/>
	<circle class="st0" cx="194.5" cy="492.5" r="42"/>
	<circle class="st0" cx="191.5" cy="654.5" r="43"/>
	<circle class="st0" cx="96" cy="669" r="88.5"/>
	<circle class="st0" cx="118.5" cy="589.5" r="54"/>
	<circle class="st0" cx="36.5" cy="747.5" r="74"/>
	<circle class="st0" cx="114" cy="760" r="25.5"/>
</g>
<g id="Layer_3" class="st1">
	<path class="st2" d="M411.5,375.2c-2.5-9.5-7.3-17.7-13.7-24.2c-8.2-10.3-20.1-17.7-34.1-19.8c-22.2-3.4-43.4,7.3-54.4,25.4
		c-2.1-1.2-4.3-2-6.8-2.4c-9.8-1.5-19,4.4-22,13.5c-4.6,1.4-8.7,4-11.9,7.5c-2.9-1-5.8-1.7-8.9-2.2c-19.7-3-38.5,5.8-49.2,21.1
		c-3-2-6.4-3.4-10.1-3.9c-13.6-2.1-26.4,7.3-28.5,20.9c-0.6,3.9-0.3,7.8,0.9,11.3c-0.3-0.1-0.7-0.1-1-0.2
		c-22.9-3.5-44.4,12.2-47.9,35.1c-1.4,9.1,0.2,17.9,4.1,25.5c-12.2,1.7-23.5,7-32.5,15c-3.7-1.5-7.6-2.6-11.7-3.2
		c-29.5-4.5-57,15.7-61.6,45.2c-3.5,22.5,7.6,44,26.1,54.8c-21.7,10.1-38,30.5-41.9,55.9c-3.2,21,2.7,41.3,14.8,56.8
		c-0.5,1.5-0.9,3.1-1.2,4.7c-2,12.8,5.9,24.8,18,28.3c1.2,3.5,3.1,6.6,5.5,9.1c-19.4,18-28.5,45.7-21.3,73
		c10.3,39.5,50.8,63.2,90.3,52.8c29.8-7.8,50.6-32.7,54.6-61.4c3.3-0.5,6.7-1.1,10-2c36.6-9.6,61.8-40.7,65.6-76.2
		c27-8.8,42.7-37.2,35.4-65c-1-4-2.5-7.8-4.4-11.3c7-9.8,11.2-21.6,11.6-33.9c7.9,3.1,16.9,3.8,25.8,1.5c22.4-5.9,35.9-28.8,30-51.3
		c-0.1-0.3-0.2-0.7-0.3-1c3.6,0.7,7.5,0.7,11.3-0.3c13.4-3.5,21.4-17.2,17.9-30.5c-1-3.7-2.7-6.9-5-9.7c14.2-12.2,21-31.8,15.9-51.1
		c-0.8-3-1.9-5.9-3.1-8.6c3.1-3.6,5.3-7.9,6.2-12.6c8.7-3.9,13.6-13.7,11.1-23.3c-0.6-2.4-1.7-4.6-3.1-6.5
		C408.8,419.1,417.2,397,411.5,375.2z M290.9,455c2.6-3.2,4.9-6.7,6.7-10.5c0.4,0.1,0.7,0.1,1.1,0.2c2,0.3,3.9,0.4,5.8,0.3
		c0,2.2,0.3,4.4,0.9,6.7c0.1,0.4,0.2,0.7,0.3,1.1c-3.6,2.2-6.9,4.8-9.8,7.7c-1,0.2-2,0.4-3.1,0.7c-1.1,0.3-2.1,0.6-3.1,1
		c0.3-1.3,0.6-2.6,0.8-3.9C290.7,457,290.8,456,290.9,455z M263.5,502.8C263.5,502.8,263.5,502.8,263.5,502.8
		c-18.4,4.8-30.7,21.2-31,39.3c-2.7,1-5.2,2.3-7.5,3.8c-3.1-5-6.8-9.7-10.9-14c0.8-1.8,1.4-3.6,1.9-5.5c18-2.2,33-16.1,35.9-34.9
		c0,0,0,0,0,0c4.4-0.1,8.6-0.8,12.6-2.2C263.5,493.7,263.1,498.2,263.5,502.8z"/>
</g>
<g id="Vector_Graphics">
	<polygon class="st0" points="416.8,459.2 460,451 464.4,436.1 461.2,402.9 569.9,335 609.9,297.6 649.2,256.3 674.6,216.5 
		691.3,172.6 697.3,142.7 695.1,136.9 645.1,132.7 584.6,143 536.9,156.6 487.6,186.7 442,218.3 402.9,252.8 387.6,266.7 
		348.4,258.1 335.6,262.1 313.9,283.1 319.5,297.1 335.9,315.4 332.3,334.9 331,369.5 335.8,387 337.5,397.5 344.4,403.2 
		349.4,404.4 369.2,422.9 393,428.5 403.1,428.3 	"/>
	<g>
		<path class="st3" d="M404.6,256l3-2.5c0.1-0.1,0.3-0.4,0.4-0.5l2.6-2.1c0.1-0.1,0.3-0.5,0.4-0.5l2-1.6c0.7-0.7,1.3-1.4,2.1-2.2
			c0.6-0.1,1-0.5,1.2-1l4.8-4c0.1-0.1,0.3-0.5,0.4-0.5l4.3-3.6l0.8-1.1l2-1.6c0.8-0.8,1.5-1.6,2.3-2.3c0.6-0.2,1.1-0.6,1.3-1
			c4.3-3.9,9-7.4,13.4-11.1c0.9-0.7,1.6-1.6,2.7-2.2c0.9-0.1,1.6-0.4,2.4-0.6c0,0,0.2-0.2,0.2-0.3c0-0.1-0.2-0.5-0.3-0.7l1.6-0.5
			c0.2-0.1,0.6-0.4,0.7-0.5c0.2-0.1,0.1-0.4-0.1-0.5c0.2-0.1,0.6-0.4,0.7-0.5c0.8-0.4,1.8-0.7,2.7-1.1c0.1,0.3,0.2-0.1,0.2-0.1
			c-0.1-0.2-0.3-0.3-0.5-0.3l1.8-1.3l-0.1-0.8c0.6-0.2,1.2-0.5,1.9-0.6l1.1-1.4c0.4-0.1,0.8-0.3,1.2-0.6c0.3-0.2,0.7-0.2,0.7-0.5
			c0-0.1,0-0.3-0.1-0.3c0.2-0.1,0.6-0.5,0.8-0.5c1.1-0.3,2.2-0.9,2.6-1.9c0.9-0.1,1.6-0.5,2.1-1c0,0-0.1-0.3-0.1-0.4
			c0-0.2,0.2-0.4,0.3-0.4c0.9-0.3,1.8-0.7,2.9-1l-0.1-0.6c0.7-0.5,1.5-0.9,2.5-1.3c0-0.1-0.1-0.4-0.1-0.6c0-0.2,0.2-0.4,0.4-0.4
			c0.8-0.2,1.3-0.5,1.9-1c0.2-0.1,0.1-0.7,0.4-0.8c0.9-0.3,1.7-0.6,2.5-0.9l0.6-1.1c0.1-0.1,0.7-0.1,0.8-0.1
			c0.6-0.2,1.1-0.5,1.6-0.9c0.2-0.2,0.1-0.7,0.5-0.9c0.8-0.3,1.6-0.7,2.5-0.9c0.2,0,0.6-0.4,0.8-0.5l-0.3-0.2
			c0.1-0.1,0.6-0.4,0.7-0.5c0.9-0.2,1.6-0.6,2.3-0.9c0,0,0.2-0.2,0.2-0.3c0-0.1-0.1-0.4-0.1-0.5c0-0.1,0.2-0.2,0.2-0.3
			c0.8-0.4,1.6-0.7,2.5-0.9l0.6-1.1c1.2-0.4,2.2-0.7,3.1-1.3c-0.1-0.1-0.3-0.2-0.3-0.3l3.2-1.3c0-0.1-0.1-0.4-0.1-0.5
			c0-0.2,0.2-0.3,0.4-0.4c0.2-0.1,0.8-0.1,1-0.2c0.5-0.2,1.1-0.4,1.3-0.8c0-0.1-0.1-0.4-0.1-0.4c0.2-0.3,0.5-0.5,0.8-0.5
			c1.2-0.2,2.4-0.6,3.5-1.1l0.6-1.1c0.6-0.1,1.1-0.3,1.5-0.6c0.2-0.2,0.6-0.2,0.8-0.5c0-0.1-0.1-0.4-0.1-0.5c0-0.1,0.2-0.3,0.3-0.3
			c0.6-0.1,1-0.3,1.5-0.7c0.6,0,1.3-0.3,1.3-1c0.3-0.3,0.8-0.6,1.3-0.8c0.9-0.3,1.5-0.6,1.9-1.2c0.7-0.2,1.3-0.5,1.9-0.8l1.9-0.6
			c0.3-0.1,0.3-0.7,0.5-0.7c1.1-0.4,2.1-0.8,3.3-1.1c0.2,0,0.6-0.3,0.8-0.5c0.2-0.2,0.1-0.6,0.3-0.6c1.1-0.3,2-0.8,3-1.3
			c0.1-0.3,0.4-0.9,0.9-1l1.9-0.6c0.1,0,0.5-0.2,0.6-0.4c0.2-0.3,0.4-0.7,0.7-1.1l2.8-0.9c0-0.1-0.1-0.5-0.1-0.6
			c0-0.2,0.2-0.4,0.4-0.4c1.4-0.3,2.8-0.6,3.9-1.1c0.1-0.1,0.4-0.6,0.5-0.7c0.1-0.1,0.6-0.4,0.7-0.5c0.9-0.4,1.8-0.7,2.8-0.9
			c0.1,0,0.2-0.2,0.2-0.3c0-0.1-0.1-0.4-0.1-0.5c0-0.1,0.2-0.3,0.2-0.3l1.8-0.3l1.6-0.7c0.2-0.1,0.8,0,1-0.2l1.9-1.2
			c1.4-0.6,3-0.9,4.5-1.3c0.3-0.1,0.3-0.6,0.5-0.7c1-0.4,2-0.7,3.1-0.8c0.3,0,0.7-0.4,1-0.4c0.4,0,0.9,0,1.4,0l1.6-0.5
			c1.7-0.3,3.7-0.7,5.3-0.7c0.7,0,1.1-0.4,1.6-0.6l5.5-0.9c0-0.1-0.1-0.5-0.1-0.6c0.1-0.3,0.5-0.5,0.7-0.5l4.4-0.8
			c1.7-0.3,3.4-0.7,5-1.1c0.7-0.4,1.4-1,2.3-1.2c4.8-1.2,9.9-2,14.6-3.2c0.2-0.3,0.5-0.8,1-0.9l9.7-2c0.7-0.1,1.5-0.1,2.2-0.1
			l1.9-0.5c2.9-0.5,6.1-1.1,8.9-1.3c5.3-0.5,11-1.6,16.1-1.9c0.2,0,0.7,0.6,0.9,0.6l1.9,0c2.3-0.4,4.4-0.6,6.4-0.5
			c0.3,0.2,0.7,0.5,1.2,0.5c2.6-0.2,5-0.3,7.7-0.7l0.9,0.8l5-0.5l1.3,0c0.5,0,0.9,0.3,1.2,0.5c0.1,0.1,0.5-0.1,0.7-0.1l1.7,0.2
			c1.3-0.1,2.3,0,3.6-0.1c0.3,0.2,0.7,0.5,1.2,0.5l1.6-0.2c1,0.2,2.1,0.2,3.2,0.2l-0.2,0.5c1.5,0.1,3.1-0.1,4.6,0
			c0.3,0,0.7,0.1,0.9,0.3l-1,0.2l0.1,0.5c0.5-0.1,0.8-0.3,1.1-0.4c1.1,0.1,2.2,0.2,3.3,0.4l2.1,0.6c0.4,0.1,0.9,0.2,1.5,0.1
			c0,0.1,0,0.5,0.1,0.6c0.1,0.2,0.3,0.3,0.4,0.3c0.8,0.1,1.4,0.3,2.2,0.2c0.2,0,0.4,0.2,0.4,0.3c0.2,1.1,0.2,2.1,0.3,3.1
			c0,0.1-0.2,0.6-0.2,0.8c0,0.1,0.1,0.6,0.1,0.7c0,0.2-0.5,0.6-0.5,0.7c0.2,0.8-0.2,1.3-0.5,1.6l0,1.9l-0.3,1.2
			c0,0.1,0.2,0.6,0.1,0.7c-0.1,0.2-0.5,0.7-0.6,0.9c0,0.1,0.1,0.4,0.1,0.5l-0.3,1.2c0,0.1,0.1,0.4,0.1,0.5c-0.2,0.3-0.5,0.6-0.4,1
			c0.2,0.5-0.1,0.9-0.4,1.3c0.3,0.7,0,1.3-0.3,1.6c-0.1,0.1,0.1,0.4,0.1,0.5c0,0.2-0.2,0.7-0.2,0.9c0,0.1,0.1,0.6,0.1,0.7
			c0,0.2-0.5,0.6-0.5,0.7l0.1,1.3c0,0.6-0.1,1.1-0.3,1.6c-0.1,0.1-0.3,0.2-0.4,0.4c-0.1,0.1,0.1,0.7,0.1,0.9c0,0.1-0.4,0.5-0.4,0.6
			c0,0.1,0.2,0.6,0.1,0.6l-0.7,1c-0.1,0.1,0.1,0.6,0.1,0.7c0,0.1-0.3,0.4-0.3,0.5c0,0.1,0.1,0.6,0.1,0.7l-0.3,1.2
			c0,0.1,0.1,0.4,0.1,0.5c-0.4,0.2-0.6,0.6-0.8,1c0,1.1-0.1,2.3,0.1,3.6c0,0.2-0.2,0.3-0.3,0.4c-0.1,0.1-0.6,0.1-0.6,0.1
			c-0.2,0.4-0.4,0.8-0.2,1.3c0,0.1-0.3,0.5-0.4,0.6c0,0.1,0.1,0.5,0.1,0.6c-0.2,0.5-0.5,0.8-0.9,1l0.1,0.8c-0.5,0.2-0.8,0.8-0.5,1.4
			c0.1,0.2-0.2,0.7-0.2,0.9c0,0.1,0.1,0.4,0.1,0.5c-0.1,0.2-0.5,0.6-0.5,0.7c0,0.1,0.2,0.6,0.1,0.7c-0.2,0.4-0.7,0.6-0.9,1l-0.1,2.2
			c-0.2,0.3-0.6,0.6-0.9,0.9c-0.1,0.1,0.1,0.6,0.1,0.7c-0.1,0.2-0.5,0.7-0.6,0.9c0,0.1,0.1,0.3,0.1,0.4l-0.8,1.2
			c0,0.1,0.1,0.3,0.1,0.4c-0.1,0.2-0.4,0.6-0.5,0.7c-0.2,0.3,0,0.8-0.1,1l-0.7,1c-0.1,0.1,0.1,0.5,0.1,0.6c-0.4,0.2-0.6,0.6-0.8,1
			c0,0.1,0.1,0.5,0,0.6c-0.4,0.8-0.8,1.7-1.4,2.5c0,0,0.1,0.3,0,0.4l-0.7,1.5c0,0,0.1,0.3,0.1,0.4l-0.7,1c0,0.1,0.1,0.4,0.1,0.5
			l-1,1.1c0,0.1,0.1,0.4,0.1,0.5l-0.7,1c-0.1,0.1,0.1,0.5,0.1,0.6c-0.1,0.2-0.6,0.7-0.6,0.9l0.2,1.1c-0.6,0.9-1.1,1.9-1.6,2.9
			l-0.8,1.1c-0.1,0.1-0.1,0.4-0.2,0.5l-1.5,2.7l-0.8,1.1c-0.1,0.1-0.1,0.4-0.2,0.5l-1.5,2.7l-0.8,1.1c-0.1,0.1-0.1,0.4-0.2,0.5
			l-1.8,2.5c-0.1,0.1-0.1,0.4-0.2,0.5l-1.6,2.2c-0.1,0.1-0.1,0.4-0.2,0.5c-0.5,0.7-1,1.4-1.5,2.2c-0.2,0.2,0,0.6-0.2,0.8
			c-0.3,0.4-0.5,0.8-0.6,1.2l-1.4,1.9c-0.1,0.1-0.1,0.4-0.2,0.5l-1.5,2c-0.8,0.2-1.3,0.7-1.4,1.4l-11.7,16.1
			c-0.1,0.2-0.5,0.3-0.5,0.4l-1.2,1.7c-0.1,0.1-0.4,0.2-0.4,0.3l-2.9,3.7c0,0-0.3,0.2-0.4,0.3l-3.8,4.2c-0.6,0.7-1.3,1.3-1.9,2
			l-2.2,1.8l-1.6,2.2c-0.6,0.7-1.3,1.3-1.9,2l-2.1,2.1l-2.1,2.3c-0.6,0.7-1.3,1.3-1.9,2l-1.3,1.2l-2.3,2.5l-4,4.1
			c-0.6,0.6-1.3,1.1-1.7,1.7c-0.1,0.2-0.7,0.5-0.9,0.7l-1.3,1.4c-0.1,0.2-0.7,0.5-0.9,0.6c-0.1,0.1-0.3,0.5-0.4,0.5l-4.7,4.4
			l-0.8,1.1l-7,6.7c-1.8,1.7-3.6,3.3-5.3,5l0.3,1.6c-0.3,0.6-0.7,1.2-1.5,1.5c0-0.2-0.1-0.7-0.1-0.8c-0.1-0.2-0.3-0.3-0.5-0.3
			c-0.1,0-0.5,0-0.6,0.1c-0.9,1.1-1.9,2-3.2,2.8c-0.1,0.1-0.3,0.5-0.4,0.5l-1.3,0.9c-0.1,0.1-0.3,0.5-0.4,0.6l-1.3,1
			c0,0.1,0.1,0.6,0.1,0.6c-1.1,1.1-2.7,2-4,3c-0.1,0-0.5,0-0.6,0.1c-19.7,14.8-40.2,29-60.4,43.4c-3.9,2.5-7.9,4.9-11.8,7.5
			c-3,1.7-5.7,3.6-8.7,5.3c-2.5,1.5-4.8,3.1-7.3,4.6l-7.6,4.8c-3.8,2.5-8.1,4.7-11.8,7.3l-1.4,0.7c-1.4,1.3-3.2,2.3-5.1,3.2
			c-1,0.5-2,1-2.8,1.6c-1,0.2-1.8,0.7-2.1,1.4c0.1,1.1,0.3,2.1,0.3,3.1l0.4,1.4c-0.1,1.6,0.2,3.4,0.3,5.1l0,2.9l0.6,3.5
			c0,0.2,0,0.9-0.1,1.1c0,0.1-0.4,0.5-0.4,0.6c0.4,3.6,0.2,6.8,0.1,10l0.3,1.7c0.1,1.1,0.1,2.1,0,3.1l-0.3,1.2
			c0,0.1,0.1,0.4,0.1,0.5c-0.2,0.5-0.7,0.8-1,1.2l0.2,1.3c0,0.2-0.2,0.7-0.2,0.8l-1.1,2.1c-0.8,1.4-1.9,2.7-3.4,3.6
			c-0.7,0.4-1.4,0.8-1.9,1.4c-0.5,0.1-0.8,0.4-1.2,0.6c-2.2,1.1-4.9,1.7-7.3,2.6c-0.9,0.3-1.4,0.5-2.2,0.4c-0.1,0-0.4,0.6-0.5,0.6
			l-1.7,0.3c-0.2,0-0.8,0.5-0.9,0.4c-0.3-0.2-0.8,0-0.8,0.4c-2.2,0.7-4.6,1.1-7,1.6c-0.1,0-0.4,0.5-0.5,0.6c-0.9,0.4-2,0.7-3.3,1
			c-0.7-0.1-1.6,0.2-2.6,0.5c-0.8-0.2-1.6-0.3-2.6-0.1l0.2-0.5c-0.2,0-0.9,0.2-1.1,0.2c-0.3-0.1-0.5-0.3-0.6-0.5
			c-1.1-1.8-1.9-3.9-2.9-5.6l-0.6-1.5l-0.9-1.3l-0.6-1.8l-0.7-1c-0.1-0.1,0-0.6-0.1-0.7c-0.1-0.2-0.7-0.5-0.8-0.7
			c-0.1-0.1,0-0.5-0.1-0.6c-0.1-0.1-0.5-0.4-0.5-0.4c-0.9-1.7-1.9-3.2-2.7-4.9c-1.4-3.7-2.8-7.6-4.4-11.2c-0.3-0.3-0.7-0.3-1.1-0.4
			l-1.7,0.2c-2-0.1-4-0.1-6.3,0l-1.9-0.2c-1.2,0.2-2.4-0.1-3.3-0.6l-3.4-0.6l-2.1-0.6l-6.5-1.6c-0.3-0.3-0.9-0.3-1.4-0.5l-5.1-2.8
			c-0.3,0.5-0.4,1-0.5,1.6c0,0.2-0.1,0.4-0.4,0.3c-0.1,0-0.3-0.2-0.3-0.2c-0.1-0.4,0-0.8,0.1-1.2c0-0.1-0.2-0.6-0.4-0.7
			c-0.5-0.2-1.1-0.3-1.6-0.7c-0.1-0.1-0.8-0.2-1-0.3c-0.2-0.1-0.6-0.4-0.7-0.5c-0.5-0.6-1.1-1.2-1.5-1.9c-0.7-0.4-1.2-0.9-1.7-1.5
			l-1.1-0.8l-4.9-4.8l-5.2-5l-1.8-1.4c-0.1,0,0-0.4-0.1-0.5c-0.2-0.4-0.5-0.8-0.8-1.2c-0.1-0.1-0.5-0.4-0.6-0.4
			c-1.2,0.1-2.3,0.1-3.5-0.1c-0.7-0.4-1.6-0.9-2.7-1.2c-0.6-0.5-1-1.2-1.6-1.8c-0.7-0.7-1.4-1.5-1.8-2.6c0-0.1-0.1-0.6-0.1-0.7
			l0.3-2.5l-0.7-4.6c0.4-0.1,0.7,0.3,1,0.2c0.1,0,0.2-0.3,0.2-0.3c0-0.2,0-0.7-0.1-0.8c-0.6-0.9-0.9-2.2-1.3-3.2c-1.3-3-2-6.5-3-9.9
			c-0.8-5.2-1.3-10.2-1.6-15.1c-0.1-2-0.1-3.9-0.3-6l0.1-5.6l1.4-5.3c0-1.2,0.2-2.4,0.3-3.6c0.1-0.6,0.2-1.1,0.3-1.6
			c0-0.1-0.1-0.4-0.1-0.5c0.3-0.3,0.4-0.8,0.5-1.4c0-0.1-0.3-0.5-0.3-0.7c0.1-0.8,0.3-1.6,0.4-2.5l0.8-0.8l1-5.4
			c0-0.1,0.4-0.5,0.5-0.7c0.1-0.5,0.4-1,0.9-1.2l1.6-2.3L342,317c-0.4-0.3-0.7-0.8-1-1.2c-0.1-0.1-0.5-0.3-0.6-0.4
			c-0.1-0.2-0.5-0.7-0.6-0.9l-2-1.9c-0.2-0.1-0.5-0.7-0.6-0.9c-0.8-0.8-1.7-1.6-2.5-2.6c0,0-0.1-0.3-0.1-0.4
			c-1.1-1.6-2.3-3.1-3.6-4.6c-0.8-0.4-1.5-1-2.3-1.6c-0.1,0-0.2-0.3-0.3-0.4c-0.4-0.2-0.7-0.7-0.8-1.1c-0.8-0.8-1.4-1.8-2-2.7
			l-1-1.8c-1.8-2.8-3.6-5.6-5.1-8.5l0-2.1l0.5-3c0-0.1,0.4-0.6,0.5-0.8c0.1-0.1,0.4-0.2,0.5-0.3c0.1-0.1,0.1-0.4,0.2-0.6l1.1-1.5
			c0.1-0.2,0.7-0.5,0.9-0.6l1.1-1.3c0.7-0.6,1.4-1.1,2.1-1.8c0.7-0.6,1.4-1.1,1.9-1.8c0,0,0.3,0,0.4-0.1c0.2-0.4,0.1-1,0.3-1.4
			c0.6-0.4,1.3-0.7,1.9-1.1c5-3.3,10.1-6.6,15.2-9.8c0.1-0.1,0.7-0.1,0.8-0.1c0.2,0,0.6-0.4,0.8-0.4l1.7,0.2c0.2,0,0.4-0.4,0.5-0.6
			c10.2,2.7,20.3,5.7,30.5,8.4c1,0.3,1.9,0.5,2.8,1c0.6,0,1.2,0.3,1.9,0.5c0.4,0.4,0.9,0.7,1.3,1.2c0.3-0.1,0.6,0.2,0.7,0l1.4-1
			c0.3-0.6,1-1,1.5-1.4c0.1-0.1-0.1-0.6-0.1-0.7c0.3-0.6,0.8-1,1.5-1.4c0,0,0-0.2,0.1-0.3c0.5-0.5,1.2-1,1.7-1.7l1.3-0.2
			c0.2,0,0.5-0.7,0.6-0.8c0.1-0.1,0.1-0.7,0.3-0.8c0.7-0.7,1.4-1.5,2.4-2c0.1,0,0.4-0.1,0.4-0.1c0.6-0.7,1.4-1.2,2-2
			c0.9-0.4,1.8-1.1,2.5-1.9c0.4-0.5,1.2-0.8,1.8-1.1C404.3,256.3,404.5,256.1,404.6,256z M511.8,180.6c-0.4,0.2-0.9,0.4-1.3,0.3
			c-0.3-0.1-0.3,0.6-0.6,0.8l-4.2,2.7c-0.1,0.1-0.5,0.1-0.5,0.2c-0.3,0.4-0.7,0.7-1.3,0.9c-0.1,0-0.4,0.5-0.5,0.6l-1.1,0.4
			c-0.3,0.1-0.5,0.5-0.8,0.7l-5.1,3.2c-0.1,0.1-0.3,0.4-0.3,0.3c-2.6,1.5-5,3.1-7.5,4.5c-0.1,0.1-0.3,0.4-0.3,0.4
			c-0.8,0.4-1.5,0.8-2.1,1.2c-0.1,0.1-0.3,0.4-0.4,0.5c-0.8,0.3-1.7,0.6-2.3,1l-2.6,1.9c-0.1,0.1-0.4,0.6-0.5,0.7
			c-0.1,0-0.3,0.1-0.3,0c-1,0.9-2.1,1.7-3.3,2.4c-3.1,1.9-5.9,4-8.8,6c-1.2,0.8-2.1,1.7-3.3,2.5c-0.1,0.1-0.4,0.2-0.4,0.2L462,214
			c-0.4,0.1-0.8,0.4-1.1,0.8c-0.6,0.4-1.2,0.8-1.7,1.3c0,0-0.3,0-0.4,0.1c-0.1,0.1-0.3,0.4-0.4,0.4c-1.6,1.1-3.1,2.2-4.5,3.4
			c-0.1,0.1-0.5,0.2-0.6,0.2c-0.1,0.1-0.4,0.6-0.6,0.7c-1.6,1.1-3.1,2.2-4.6,3.4c-0.1,0.1-0.3,0.5-0.4,0.5c-0.7,0.5-1.3,1-1.9,1.7
			c0,0-0.3,0-0.3,0.1l-2.1,2.1c-0.1,0.1-0.4,0.1-0.6,0.3c-2.4,2.4-5.3,4.5-8,6.8c-2.2,1.9-4.4,3.8-6.7,5.7c-0.1,0.1-0.3,0.4-0.3,0.4
			c-0.1,0-0.4,0-0.4,0.1c-0.7,1-1.6,1.8-2.7,2.5c-0.1,0.1-0.3,0.5-0.4,0.6c-1.2,0.9-2.1,2-3.3,2.7l-1.9,2c-0.4,0.5-0.8,1-1,1.6
			l-0.5,1.5c0,0.2-0.4,0.6-0.5,0.7c0,0.1,0.1,0.3,0.1,0.3c-0.5,0.9-0.9,1.8-1.4,2.7c-0.1,0.3-0.2,0.7-0.2,1c-0.6,0.9-1,1.9-1.4,2.9
			c0,0-0.2-0.1-0.3-0.2c0-0.1-0.1-0.4-0.1-0.5l0.5-1.5c0.1-0.2,0.4-0.6,0.5-0.7c0-0.1-0.1-0.3-0.1-0.3c0.4-0.7,0.5-1.6,1-2.1
			c0.2-0.6,0.4-1.2,0.6-1.9c0-0.1-0.1-0.3-0.1-0.4c-0.2,0-0.7,0.1-0.8,0.1c-0.1,0.1-0.4,0.6-0.6,0.7c-1,0.6-1.8,1.4-2.3,2.5
			c-0.2,0.5-0.3,1.1-0.7,1.5c0,0,0.1,0.3,0,0.4c-0.2,0.3-0.4,0.6-0.4,1c-0.1,0.4-0.1,0.9-0.3,1.3c-0.1,0.1-0.4,0.4-0.4,0.5
			c-0.3,1.5-1.2,2.6-1.7,4c-0.1,0.2-0.3,0.2-0.4,0.2c0-0.2-0.1-0.6-0.1-0.6c0.5-1.4,0.9-2.6,1.5-3.6c0.1-0.2,0-0.6,0-0.6l0.9-2.1
			c0,0,0-0.3-0.1-0.3c0-0.1-0.2-0.2-0.3-0.2c-0.3-0.1-0.5,0.2-0.7,0.3c-0.1,0.1-0.4,0.6-0.5,0.7c-0.1,0-0.4,0-0.4,0.1
			c-0.3,0.4-0.4,0.9-0.8,1.3c-0.1,0.7-0.4,1.2-0.7,1.7c-0.1,0.2,0,0.6,0,0.6l-1.1,2.6c0,0,0.1,0.3,0,0.3c-0.2,0.3-0.4,0.6-0.4,1
			c-0.1,0.4-0.1,0.9-0.3,1.3c-0.1,0.2-0.4,0.6-0.5,0.7c-0.1,0.1-0.3,0.1-0.4-0.1c-0.1-0.2,0.1-0.4,0-0.7c0-0.1,0.4-0.5,0.4-0.6
			c0-0.1-0.1-0.4-0.1-0.5c0.4-1.4,0.8-3,1.4-4.2c0.1-0.3-0.2-0.6-0.5-0.7c-0.8,0.8-1.8,1.6-2.8,2.3c-0.2,0.5-0.6,0.9-1.3,1
			c-0.2,0-0.4,0.6-0.6,0.7c-0.2,0.1-0.7,0.5-0.9,0.6c-0.1,0.1-0.3,0.5-0.4,0.6c-1.2,0.8-2.2,1.7-3.2,2.7l-3,2.5
			c-0.1,0.1-0.3,0.3-0.3,0.3c-1.6,0.8-2.5,1.9-3.6,3l-2.6,2.4l-1.1,0.8l-1.5,1.6c-2,1.6-3.7,3.2-5.3,5l-4.9,4.5
			c-0.8,1.1-2,2-3.2,3.1c0,0-0.3,0-0.3,0.1c-0.5,1.1-1.6,1.9-2.6,2.7c-2.1,2.4-4.7,4.5-7,6.8c-0.5,0.5-1.2,1-1.5,1.6
			c-0.1,0.2-0.7,0.5-0.9,0.6c-0.1,0.1-0.3,0.5-0.4,0.5l-4.5,3.9l-1.7,1.7l-1.6,2.2c-0.1,0.1-0.4,0.2-0.4,0.3l-1,1.4
			c-0.5,0.2-0.8,0.7-0.9,1.2c0,0.1-0.4,0.5-0.4,0.6c-0.5,1.8-1,3.8-1.4,5.7c0,0.1,0,0.3,0.1,0.4c0.2,0,0.8,0,0.9-0.1
			c0.8-0.6,1.8-1.2,3-1.7c0.1-0.1,0.6-0.1,0.7-0.1c1.3-0.4,2-1.3,2.7-1.8c1-0.3,1.5-0.8,1.8-1.3c0-0.1,0.4,0,0.4-0.1
			c0.5-0.6,1.2-1,1.9-1.4c1.2-0.7,2.4-1.3,3.6-2.1c1.6-1,3.1-2,4.8-3c0.1,0,0.4,0,0.5-0.1c0.3-0.4,0.8-0.8,1.5-1
			c1.5-1.1,3.4-2,5.1-3.1l3.5-2.5c0.9-0.5,1.8-0.9,2.4-1.5c0.1-0.1,0.4,0,0.4-0.1l3.2-2.2c0.1-0.1,0.4-0.1,0.4-0.1
			c0,0.2,0.2,0.8,0.2,1c0,0.4-0.6,0.4-0.7,0.7c-0.1,0.2-0.2,0.7-0.2,0.9c0,1.6-0.2,3,0,4.7c-0.3,0.8-0.4,1.7-0.4,2.6
			c-0.1,1.8-0.3,3.5-0.4,5c0.3,0.9,0.4,1.5,0.8,2c-0.3,0.9-1,1.6-1.4,2.4l-0.8,1.2c-1.6,1.3-3,2.6-4.6,3.7c-0.1,0.1-0.3,0.4-0.4,0.4
			c-0.6,0.1-1,0.5-1.3,0.9c0,0.1-0.4,0-0.4,0.1c-0.3,0.4-0.7,0.8-1.3,0.9c-0.1,0-0.3,0.4-0.4,0.4l-4.8,3.5c-0.1,0.1-0.3,0.4-0.4,0.4
			c-0.6,0.2-1,0.5-1.3,0.9c-0.1,0.1-0.5,0.2-0.6,0.2c-1.4,1-2.8,2-4.2,3.1c-0.1,0.1-0.3,0.5-0.4,0.5l-2,1.5
			c-0.1,0.1-0.4,0.2-0.4,0.1c-1.1,0.9-1.9,1.8-2.9,2.6c-2.2,1.8-4.8,3.4-7,5.3c-0.7,0.6-1.4,1.2-2,1.9c-0.1,0.1-0.2,0.7-0.2,0.8
			l1.7,10.7l0.4,1.1l-0.1,1.2l0.7,4.1l3.1,7.2c0.2,0.4,0.4,0.8,0.9,1l3.1-2.1c0.1-0.1,0.3-0.4,0.4-0.4c0.5-0.1,0.9-0.4,1.2-0.8
			c0.2-0.3,0.6-0.4,0.9-0.5l1-1c1.3-0.8,2.4-1.5,3.5-2.3l5.4-3.8c0,0,0.2-0.3,0.3-0.3c0.1-0.1,0.6,0,0.6-0.1c0.4-0.5,1-1,1.7-1.2
			c0.6-0.7,1.4-1.2,2.3-1.6c0.4-0.5,1-0.9,1.7-1.2c0.5-0.6,1.2-1,1.9-1.4c4.5-2.8,8.6-6,13-8.9c0.1-0.1,0.5-0.1,0.5-0.2
			c0.1-0.1,0.4-0.4,0.4-0.4c2.1-1.2,3.9-2.5,6.1-3.6c0.1,0,0.5-0.6,0.5-0.7c1.2-0.6,2.1-1.4,3.1-2.1c1.1-0.4,2.2-0.8,3.3-1.2
			c1.1-0.1,2.1-0.1,3.1,0.1c0.1,0,0.4,0.1,0.5,0.2l1.8,1.3c0.7,0.7,1.5,1.4,2.1,2.4l0.5,1.1c0.2,1.3,0.6,2.2,0.5,3.3
			c-0.1,1-0.4,2-0.7,2.9l1,10.9l1.9,11.7c0.4,2.3,0.8,5,1.6,7c0.6-0.1,1-0.4,1.5-0.6c0.2-0.1,0.4-0.5,0.8-0.7c0.6-0.3,1-0.7,1.7-1
			c0.2-0.1,0.4-0.5,0.8-0.6c1.1-0.6,2.2-1.3,3.5-1.7c0.3-0.1,0.5-0.5,0.8-0.7l6.9-4.7l1.2-0.2c0.7,0.5,1.5,1,2.1,1.6
			c0.1,0.1,0.7,0.2,0.8,0.3l1.7,1.2l2,0.6c1.6,1.1,3.2,2.3,4.6,3.6c0.4,0.3,0.5,0.9,0.7,1.3c0.1,0.2-0.1,0.5-0.2,0.7
			c-1.8,1.6-3.7,3.1-5.9,4.4c-0.6,0.6-1.2,1.1-2.1,1.5c-0.5,0.7-1.3,1.3-1.9,2.2c-2.1,1.5-4.5,2.9-6.8,4.4c-1.4,0.6-2.3,1.6-3.5,2.3
			c-0.6,0.3-1.3,0.6-1.8,1c-0.2,0.1-0.4,0.6-0.6,0.8c0.3,0.5,0.8,1.2,0.9,2.1c-0.2,0.5-0.5,1-0.6,1.6c0,0.1,0.1,0.7,0.2,0.9
			c0.1,0.2,0.4,0.5,0.6,0.3c0.5-0.3,1.1-0.6,1.8-0.8l1.1-0.7l1.5-0.5l1.1-0.7c0.6-0.1,1.2-0.3,1.7-0.5l1-0.6l1.9-0.5
			c0.1,0,0.4-0.5,0.5-0.6c0.1-0.1,0.7-0.1,0.8-0.2c1.1-0.6,2.4-1.2,3.9-1.6c0.1,0,0.4-0.6,0.5-0.6l1.4-0.2c0.3,0,0.6-0.3,0.8-0.8
			c-0.4-0.1-1.4,0.1-1.9,0.2l-1.5,1l-1.2,0.2c-0.1,0-0.4-0.2-0.5-0.3c0.2-0.1,0.6-0.4,0.7-0.5c0.1,0,0.5,0,0.6-0.1
			c0.7-0.5,1.6-0.9,2.5-1.3c0.8-0.4,1.6-0.8,2.7-1c0.5-0.4,1.2-0.7,1.9-1c0.2-0.1,0.8-0.1,1-0.2c0.1-0.1,0.4-0.5,0.5-0.6
			c1.6-0.5,3.1-1,4.3-1.9c0.2-0.1,0.7,0,0.9,0.2c0,0,0.1,0.3,0,0.4c-0.1,0.2-0.1,0.4-0.3,0.5l-2,0.3l0.1,0.5l1.4-0.2
			c0.2,0,0.7,0.2,0.9,0.2c-0.2,0.2-0.9,0.1-1,0.3c-0.4,0.6-1.1,0.9-2,1.2c-0.3,0.1-0.6,0.2-0.8,0.5c-0.1,0.3,0,0.6,0,0.8
			c0,0.2-0.1,0.4-0.3,0.5l-1.4,0.5l-2,0.3c-0.5,0.3-0.8,0.8-1.3,1.1c-0.2,0.1-0.9,0.2-1,0.3c-0.1,0.5-0.6,0.9-0.9,1.3
			c-1.3,0.7-2.6,1.3-3.8,2.1c-1.5,0.4-2.5,1.2-3.8,1.7l-1.1,0.5c-0.1,0.1-0.5,0-0.6,0.1l-1,0.7l-1.2,0.4l-1,0.6l-2.7,0.9l-1.1,0.8
			c-0.1,0.1-0.4,0.6-0.5,0.7c-0.1,0.1-0.4,0-0.5,0.1l-1.6,1.1c-0.6,0.6-1,1.4-1.2,2.3l-0.9,1.2c-0.1,0.7-0.4,1.5-1,1.9
			c0,0.2,0.1,0.8,0.1,0.9c0.1,0.2,0.3,0.3,0.5,0.3c0.6,0,1.2,0,1.8,0.1c1.5,0.2,3,0.4,4.6,0.6l2.1-0.3c0-0.2-0.1-0.5-0.4-0.6l-5.4-1
			c-0.2,0-0.5-0.2-0.7-0.5c-0.1-0.1-0.1-0.5-0.1-0.6l1-0.2l5.7,0.9c0.9,0.1,1.7,0.2,2.6,0.2c0.7,0,1.3-0.3,1.8-0.6
			c0.1-0.1,0.3-0.2,0.3-0.4c0-0.1-0.1-0.4-0.1-0.5c-1.4-0.1-2.7-0.2-4-0.5c-0.9-0.2-1.7-0.6-2.4-0.9c-0.2-0.1,0-0.5,0.2-0.5l1.1-0.2
			c2.5,0.6,5.2,0.7,7.8,1c0.2,0,0.7-0.1,0.8-0.1c0.8-0.4,1.6-0.7,2.2-1.2c0.1-0.1,0.2-0.3,0.2-0.3c-1-0.2-2-0.5-3.2-0.6l-2-0.6
			c0-0.1-0.1-0.4-0.1-0.5c0.1-0.2,0.3-0.4,0.6-0.4l2.5,0.3l1.6,0c0.9,0.3,2.1,0.3,3.1,0.5c0.1,0,0.5,0,0.6-0.1l1.2-0.8
			c0.1,0,0.2-0.3,0.2-0.3c0-0.1,0-0.3-0.1-0.4c-0.3-0.2-0.5-0.3-0.8-0.3c-0.1,0-0.5,0.1-0.6,0.1c-1.1-0.1-2.1-0.3-3-0.6
			c-0.1,0-0.3-0.2-0.3-0.2c0-0.1-0.1-0.4-0.1-0.6c1.2-0.2,2.2-0.2,3.2-0.1c1.6,0.1,3,0.4,4.6,0.5c0.8-0.2,1.5-0.6,2.1-1.1
			c0-0.1,0-0.4-0.1-0.4c-0.3-0.2-0.6-0.3-0.9-0.3c-0.1,0-0.4,0.1-0.5,0.1l-1.1-0.8c-0.1-0.1-0.2-0.3-0.2-0.5l5.2,0.2
			c0.2,0,0.8-0.1,1-0.2c0.9-0.5,1.8-1,2.4-1.5c0.2-0.2,0.2-0.4,0.1-0.6c-0.6,0-1.1-0.1-1.8,0c-1-0.2-2.1-0.3-3-0.6
			c-0.1,0-0.5-0.3-0.6-0.4c-0.1-0.1-0.1-0.4-0.1-0.6c0.2,0,0.8-0.2,1-0.1c2.3,0.2,4.7,0.4,7.1,0.6c0.8-0.2,1.6-0.5,2.1-0.8
			c0.1-0.1,0.2-0.2,0.2-0.3c-0.1-0.1-0.1-0.3-0.3-0.3c-0.2-0.1-0.7-0.2-0.9-0.2c-1.4,0.2-2.7,0.1-3.8-0.1c-0.7,0.1-1.2,0-1.8,0
			c0-0.1-0.1-0.4-0.1-0.5c0.1-0.2,0.2-0.4,0.3-0.5l1.4-0.2c2.6,0.1,5.3,0.2,8.1,0l1.8-0.5c0.2-0.1,0.4-0.3,0.3-0.5
			c-0.1-0.3-0.5-0.4-0.8-0.4l-4.8,0.3c-0.2,0-0.6-0.3-0.7-0.5c-0.1-0.1-0.1-0.5-0.1-0.6c3.1-0.4,6.1-0.5,9-0.7l2.4-0.4
			c0.1,0,0.4-0.6,0.5-0.7c-0.2,0-0.7-0.2-0.8-0.2c-2.1,0.3-4,0.1-6.2,0.4c-0.3,0-0.7-0.1-0.9-0.3c-0.1-0.1-0.1-0.3,0-0.4
			c0.1-0.1,0.6-0.5,0.8-0.5l6.4-0.8l2.3,0.1c0.1,0,0.4,0,0.4-0.1c0.1-0.1,0.3-0.3,0.4-0.4c0-0.1-0.1-0.5-0.1-0.6
			c0.1-0.2,0.1-0.4,0.3-0.5l2.5-0.4c0.4,0.1,1.1,0.1,1.9-0.1c0.1,0,0.5-0.4,0.7-0.5c-0.1-0.1-0.4-0.3-0.5-0.3
			c-1.3,0.1-2.5,0-3.5-0.3c-0.2-0.1-0.2-0.4-0.2-0.6c0,0,0.2-0.3,0.3-0.3c2.3-0.1,4.7-0.2,7.3-0.6c1-0.5,2-1,3.1-1.5
			c0,0,0.2-0.2,0.2-0.2c0-0.1,0-0.4-0.1-0.5c0-0.1-0.3-0.2-0.3-0.2l-1.5,0.2c-0.2,0-0.9,0-1.1-0.1c-0.2-0.1-0.4-0.1-0.5-0.3
			c0-0.1-0.1-0.3-0.1-0.4c0.2-0.4,0.6-0.6,1-0.8l2.8-0.4l2.4-0.6c0.4-0.2,0.8-0.4,0.9-0.8c0-0.1-0.1-0.4-0.1-0.4
			c0.2-0.3,0.4-0.7,0.7-1l4.4-0.7c0.8-0.4,1.6-0.7,2.2-1.2c0.2-0.1,0.4-0.5,0.4-0.7c0-0.4,0.1-0.8,0.3-1.1l1.8-0.3l1.4-0.5l1.8-2.5
			l2.1-0.6c1.1-0.8,2.3-1.4,3.6-2.1c0.2-0.1,0.4-0.5,0.7-0.6c1-0.5,1.8-1.2,2.5-1.7c0.8-0.2,1.3-0.6,1.5-0.9
			c7.8-4.9,15.6-9.7,23-14.7l3.5-2.5c0.1-0.1,0.3-0.3,0.2-0.3c1.3-0.8,2.4-1.6,3.5-2.2c0.1-0.1,0.3-0.4,0.4-0.5
			c0.1-0.1,0.5-0.1,0.6-0.2l6.4-4.9c1.1-0.5,1.8-1.4,2.9-1.9c1.6-1.3,3.5-2.4,5-3.7c0.1-0.1,0.4-0.1,0.5-0.2
			c0.1-0.1,0.4-0.5,0.5-0.5c1.4-0.5,2.4-1.4,3.2-2.4c1.7-1.2,3.2-2.6,4.7-4.1c0.6-0.1,1-0.5,1.3-1c0.5-0.3,0.7-0.7,1-1
			c0-0.1,0.3,0,0.4-0.1c0.6-0.6,1.3-1.1,1.7-1.6c0.1-0.1,0.1-0.5,0.2-0.6l1.2-1.7c1.5-2.7,3.1-5.4,4.3-8.3c0-0.1,0.1-0.4,0.2-0.5
			l0.8-1.1l0.9-2.1l1.9-3.3c0.5-0.9,0.9-1.9,1.3-2.9c0.1-0.2,0.4-0.6,0.5-0.7c0-0.1-0.1-0.3-0.1-0.4c0.4-0.5,0.5-1.3,0.5-2
			c-0.3-0.1,0.2-0.3,0.3-0.4c0.1-0.1,0.2-0.3,0.2-0.4l-0.2-1.1c0-0.1-0.3-0.3-0.5-0.3c-0.1,0-0.6,0-0.7,0.1l-1.7,1.2
			c-0.2,0.1-0.1,0.5-0.3,0.6l-1.5,1.1c-0.1,0.1-0.3,0.5-0.4,0.5l-2.8,2.2c-0.1,0.1-0.3,0.5-0.4,0.6c0,0.1,0.1,0.3,0.1,0.4
			c0,0.1-0.3,0.5-0.4,0.6c-0.1,0.1-0.6,0.4-0.7,0.5c-0.1,0-0.4,0-0.5,0.1l-0.9,1.1c-0.8,0.3-1.3,0.7-1.8,1.3c0,0.1-0.4,0.1-0.5,0.2
			c-2.7,1.8-5.1,3.9-7.6,5.9c-0.1,0.1-0.3,0.4-0.3,0.4c-0.1,0-0.3,0-0.4,0.1c-0.1,0.1-0.4,0.6-0.6,0.7c-0.6,0.3-1,0.8-1.5,1.3
			c0,0,0,0.3,0.1,0.3c0.2,0.1,0.5,0.1,0.6,0.3c0.1,0.1,0.1,0.4,0.1,0.5c0,0.1-0.3,0.5-0.4,0.6l-1.2,0.5c-1.9,1.4-3.9,2.8-6,4.1
			c-0.1,0-0.4,0.1-0.5,0.1c-0.6-0.4-1-0.9-1.5-1.4c-0.6-0.6-1.4-1.1-2.2-1.7c-0.5-0.6-1.2-0.9-1.8-1.4c-0.4-0.4-1-0.7-1.5-1.1
			c-0.1,0-0.4-0.1-0.5-0.2l-1.4-1c-0.1-0.1-0.4-0.1-0.5-0.2l-2.9-2.1c-0.2-0.1-0.2-0.4-0.4-0.5c-0.8-0.3-1.4-0.7-1.9-1.4l-3.7-2.6
			c-0.8-0.5-1.7-0.9-2.4-1.7c-0.7-0.8-1.6-1.5-2.5-2.1c-0.6-0.7-1.4-1.3-2.1-1.7c-1.2-1.3-2.5-2.2-3.6-3.3c-0.2-0.2-0.4-0.6-0.5-0.9
			l-1.1-0.9l-0.3-1.7c0-0.3,0.1-0.8,0.3-0.9l1.4-0.2c0.2,0,0.6-0.4,0.7-0.5c0.1-0.1,0.4-0.6,0.5-0.7c0.1,0,0.3,0,0.4-0.1l1.2-1.2
			c0,0,0.3,0,0.3,0c1.9-1.6,3.7-3.4,5.6-5c0.9-0.8,2-1.5,2.7-2.3c0.1-0.2,0.6-0.2,0.6-0.2c0.1-0.1,0.3-0.4,0.3-0.4
			c1.4-1,2.7-2,4.1-2.8c0.1-0.1,0.3-0.4,0.4-0.5c0.1,0,0.4,0,0.4-0.1c0.3-0.4,0.7-0.8,1.2-0.9c0.7-0.7,1.5-1.2,2.2-1.7
			c0.1-0.1,0.3-0.4,0.4-0.5c0.1,0,0.3-0.1,0.3,0c0.8-0.7,1.7-1.3,2.4-2c0.8-0.9,1.7-1.6,2.6-2.4c0,0,0.3,0,0.3-0.1
			c0.2-0.3,0.5-0.5,0.8-0.7c0.4-0.2,0.8-0.4,1.1-0.7c0.1-0.1,0.5-0.7,0.6-0.9c0-0.1,0-0.3-0.1-0.4c-1.2-1.2-2.4-2.3-3.4-3.8
			c-0.1-0.1-0.6-0.4-0.7-0.6c-0.2-0.7-0.6-1.1-0.9-1.2c-1.2-1.2-2.2-2.5-3.2-3.8l-4.3-5.7c-0.1-0.1-0.2-0.5-0.2-0.6
			c-0.1-0.1-0.5-0.4-0.6-0.5c-0.1-0.1-0.1-0.4-0.2-0.5l-2.2-3.1c-0.1-0.1-0.6-0.4-0.7-0.5l-0.8-1.6c0-0.1-0.5-0.3-0.5-0.4l-0.8-1.6
			c0-0.1-0.4-0.4-0.5-0.4c-0.7-1.4-1.5-2.5-2.2-3.7c-0.1-0.1-0.4-0.3-0.4-0.3c-0.7-1.5-1.6-2.8-2.3-4.3c-0.3-0.2-0.6-0.5-1-0.7
			c-0.1,0-0.4,0-0.4,0.1c-0.1,0.1-0.4,0.5-0.4,0.5c-1.5,0.7-2.6,1.7-4,2.3c-4.3,2.8-8.6,5.5-12.8,8.4c-0.6,0.3-1.1,0.6-1.4,0.9
			c-3.1,2.1-6.4,4-9,6.3c-0.1,0.1-0.3,0.5-0.4,0.5c-0.1,0.1-0.6,0.5-0.7,0.5l-1.1,0.2c-0.2,0-0.8,0.3-1,0.4
			c-0.1,0.1-0.4,0.5-0.5,0.6c-0.1,0.1-0.6,0.1-0.7,0.1c-0.2,0-0.7-0.2-0.9-0.2c-0.1-0.1-0.5-0.3-0.6-0.4c-0.1-0.2-0.1-0.8-0.1-0.9
			l-1.5-2.9c-0.4-0.8-0.7-1.6-1-2.4l-0.6-1l-2.6-6.4c-1.8-4.9-3.4-10-4.8-15.2l-0.3-1.8l-0.5-1.6c0-0.6,0-1.2-0.1-1.8l0.3-1.2
			c0-0.2-0.2-0.8-0.2-1c0-0.2,0.4-0.8,0.6-0.9c2.1-1.3,4.3-2.6,6.4-3.9c1.2-0.8,2.3-1.9,3.9-2.5c0.2-0.1,0.4-0.5,0.8-0.6
			c0.8-0.3,1.3-0.9,2.1-1.3c0.2-0.1,0.4-0.4,0.7-0.6c1.7-1,3.6-1.9,5.4-2.8c0.4-0.2,0.8-0.5,1.2-0.8c0.1-0.1,0.4,0,0.5-0.1
			c0.5-0.6,1.2-1,1.9-1.4c0.6-0.4,1.3-0.9,2.1-1.1c0.3-0.5,0.8-0.9,1.6-1.1c0.2,0,0.5-0.5,0.8-0.7l3.6-2c0.1-0.1,0.2-0.3,0.2-0.4
			c-0.4-3.7-0.7-7.3-1.3-11.1c-0.1-2.6,0.1-4.9,0.4-7.2c0-0.1,0-0.4-0.1-0.5C512.1,181,511.9,180.7,511.8,180.6z M550.3,181.6
			l-1,0.7c-4.1,1.7-7.9,3.5-11.2,5.6c-1.7,1-3.5,1.9-5.4,2.8c-0.5,0.4-1,0.8-1.9,1.1c-1.5,1-3.1,2-4.8,3c-1.2,0.3-2,0.9-2.9,1.4
			c-1.7,1-3.3,2.2-5.3,3.2c0,0-0.3,0.4-0.4,0.5l-1.1,0.4c-0.2,0.1-0.6,0.5-0.5,0.7l0.3,2.2l2.9,9.4c0.2,0.7,0.6,1.3,0.7,2.3l0.6,1
			c1.8,5.1,4,9.7,6,14.4c0.4,1,0.9,1.9,1.5,2.8c0.1,0.1,0.5,0.3,0.7,0.2c1.8-1.1,3.7-2.1,5.5-3.2l6.2-3.9c3.9-2.7,7.8-5.5,11.9-8.3
			c0,0,0.4-0.5,0.5-0.7c0.1-0.1,0.4-0.2,0.5-0.2l4.4-3.1c1.2-0.7,2.2-1.5,3.7-1.9c0.2-0.3,0.5-0.6,0.8-1c-0.9-2.2-2-4.3-2.9-6.4
			l-4.1-11c-1.3-3.7-2.4-7.8-3.4-12L550.3,181.6z M596.1,192l-1,1.3l-4.4,2.8c-1.4,0.4-3,0.7-4.2,1.5c-0.5,0.3-0.9,0.6-1.2,1
			c-1,0.3-1.8,0.9-2.5,1.5c-1.2,0.5-2.4,1.1-3.4,1.7L575,205c-0.1,0.1-0.5,0.1-0.5,0.2c-0.2,0.3-0.5,0.5-0.8,0.7
			c-1.5,0.9-3.2,1.7-4.9,2.7c0,0-0.3,0.4-0.3,0.4l-3.4,1.9c-0.3,0.2-0.5,0.7-0.3,1.2c0.4,0.9,1,1.5,1.4,2.3c1.2,2.4,2.2,5.1,3.5,7.2
			l1.3,1.8l1.1,2l2.2,3.1c0.1,0.1,0.1,0.5,0.2,0.5c0.3,0.2,0.5,0.5,0.7,0.8c1,2.1,2.3,3.8,3.6,5.5l4.2,5.2c0.1,0.2,0.7,0.5,0.8,0.6
			c0.2,0.2,0.5,0.7,0.6,0.9c0.1,0.1,0.5,0.4,0.6,0.4c0.1,0,0.4,0,0.5-0.1c1.3-1.1,2.7-2.2,3.9-3.4c0.1-0.2,0.7-0.5,0.9-0.7l1.7-1.7
			c2.8-2.3,5.9-4.3,8.5-6.7c2.5-1.7,5-3.4,7-5.5c1.1-0.8,2-1.8,3-2.7c0.7-0.5,1.3-1,1.9-1.6c0.4-0.4,1-0.8,1.5-1.2
			c0.1-0.1,0.3-0.5,0.4-0.6c0.2-0.1,0.7-0.5,0.9-0.6c0.1-0.1,0.4-0.5,0.4-0.6c0-0.2-0.1-0.8-0.1-0.8c-1.4-1.1-2.5-2.5-3.6-3.8
			c-0.1-0.1-0.4-0.3-0.4-0.4c0-0.1-0.1-0.3,0-0.3l-3.2-3.9l-4-5.3c-0.4-0.3-0.6-0.7-0.9-0.9c-1.1-1.9-2.1-3.7-3.3-5.4
			c-0.9-1.3-2-2.5-2.8-3.9c-0.1-0.1-0.5-0.4-0.6-0.4C596.4,191.9,596.1,191.9,596.1,192z M584.9,245.6c-0.1,0-0.4,0-0.5,0.1
			c-0.9,0.6-1.6,1.3-2.4,2.1l-1,0.4c-0.7,1-1.8,1.7-2.7,2.6c-0.6,0.6-1.2,1.2-2,1.7c-3.2,3.4-6.7,6.6-11.4,8.8l-5.5,5.1
			c-0.8,0.7-1.8,1.2-2.6,2c0,0-0.2,0-0.3,0c-0.5,0.5-1,0.9-1.5,1.4c0,0-0.1,0.2-0.1,0.2c0,0.1,0,0.4,0.1,0.5
			c0.5,0.7,1.1,1.3,1.7,1.9l2.8,2.5l0.9,1.1c0.6,0.4,1.2,1,1.7,1.6l2.3,2.1l1.4,1c0.1,0.1,0.2,0.4,0.3,0.4l1.4,1
			c0.1,0.1,0.2,0.4,0.3,0.4l1.6,1.2c0.2,0.5,0.9,0.6,1.2,1l2.5,1.8c0.1,0.1,0.2,0.4,0.3,0.4l2.3,1.7c1.6,0.5,2.7,1.5,4,2.5
			c0.1,0.1,0.2,0.4,0.3,0.4c0.2,0.1,0.7,0.5,0.9,0.6c0.1,0,0.3,0,0.3-0.1l2-1.9c0.1-0.1,0.5-0.2,0.5-0.2c0.8-0.9,1.7-1.5,2.6-2.3
			c0.1-0.1,0.3-0.5,0.4-0.5c0.9-0.6,1.5-1.4,2.3-2c0.1-0.5,0.5-0.7,0.7-1c0.1-0.2,0.7-0.5,0.9-0.6l1.3-1.4c0.8-0.6,1.6-1.2,2.1-2.1
			l1.3-0.9l1-1.4c0.1-0.1-0.2-0.8-0.1-0.9c0.8-1.2,2.2-1.9,3.4-2.6c0.2-0.1,0.3-0.5,0.4-0.5c0.1,0,0.3,0,0.4-0.1
			c0.1-0.1,0.4-0.6,0.5-0.7c0.2-0.1,0.7-0.5,0.9-0.6l1.9-2c0.1-0.1,0.4-0.2,0.4-0.3c0.7-1,1.5-1.9,2-2.9c0.6-0.4,1.1-0.9,1.5-1.4
			c0.1-0.1,0-0.6-0.1-0.7l-7.4-5.5c0,0-0.2-0.3-0.3-0.4l-1.9-1.4l-1.9-1.7l-1.5-1.1c-0.1-0.1-0.2-0.4-0.3-0.5l-1.1-0.8l-2-1.9
			c-0.2-0.1-0.5-0.7-0.7-0.8c-1.5-1.5-2.9-3.1-4.5-4.8c-0.2-0.1-0.5-0.4-0.7-0.7C585.2,245.7,585,245.6,584.9,245.6z M339.1,270.9
			c-0.1,0.1-0.3,0.4-0.4,0.4c-0.8,0.3-1.3,0.8-1.9,1.2c-2.1,1.6-4.2,3.3-6.3,5c-1.2,0.9-2.5,1.8-3.7,2.7l-0.7,1
			c-0.1,0.1-0.3,0.7-0.2,0.9l0.3,2.1c0,0.1,0.3,0.3,0.5,0.3c0.1,0,0.4,0,0.5-0.1c0.4-0.9,0.8-2,1.5-2.9c0.1-0.1,0.1-0.4,0.2-0.5
			l0.9-1.3c0.4-0.3,0.9-0.6,1.2-1c0.5-0.1,0.9-0.4,1.2-0.7c0.4-0.5,1-0.9,1.4-1.4c0.1-0.1,0.8-0.1,1-0.2c0,0.8-0.4,1.4-1,1.9
			c0.6,0.8,1.4,1.5,1.8,2.4c0.1,0.1,0.1,0.5,0.1,0.7c-0.2,0.1-0.3,0-0.5,0c-0.1-0.1-0.6-0.4-0.7-0.5c-0.3-0.6-0.8-1-1.2-1.5
			c0-0.1-0.2-0.2-0.3-0.2c-0.1,0-0.6,0-0.7,0.1l-1.2,0.8c-0.2,0.4-0.6,0.7-0.8,0.9l-2.1,4.6c-0.2,1.2-0.3,2.5-0.2,3.8l0.5,3.2l0.6,1
			c0.7,2.1,1.8,3.6,2.9,5.1c0.4,0.6,0.6,1.3,1,1.8c0.1,0.1,0.4,0.3,0.4,0.3c0.5,1.1,1.1,1.8,1.8,2.4c0.2,0.5,0.4,0.9,0.7,1.2
			l1.1,0.8c0.2,0.2,0.4,0.6,0.5,0.7c0.8,1.1,1.6,1.7,2.6,2c0,0.5-0.4,1.1-0.2,1.6c0.1,0.3,0.2,0.7,0.5,0.8c0.5,0.1,0.9,0.3,1.4,0.4
			c0.1,0,0.6-0.3,0.7-0.3c0.5,0.1,0.9,0.1,1.2,0.4c0.1,0.1,0.1,0.4,0.1,0.4c-0.3,0.5-0.5,1-0.4,1.8c0,0.2,0.3,0.3,0.4,0.3
			c0.7-0.1,1.3,0.2,2,0.1l1.3-1.2c0.1-0.1,0.6-0.7,0.6-0.9c0-0.2,0-0.8-0.1-0.9l-1.5-1.1l-2.7-3l-2.2-2.1l-3.2-3.2
			c-0.2-0.1-0.5-0.7-0.6-0.9c-0.1-0.1-0.5-0.3-0.6-0.4c-0.3-0.4-0.6-0.9-1-1.2c0,0,0-0.4-0.1-0.4l-1-0.8c-0.5-0.9-1.2-1.5-1.8-2.4
			c-0.1-0.1-0.6-0.4-0.6-0.5c-0.5-0.9-1-1.7-1.4-2.5c-0.1-0.1-0.1-0.6-0.1-0.7c0-0.1,0.1-0.3,0.2-0.3c0.3-0.1,0.7,0.2,0.9,0.5
			c2.2,3,4.6,5.7,7.2,8.1c0.7,1,1.6,1.7,2.4,2.6c0.1,0.1,0.2,0.4,0.3,0.4l1.1,0.8c1,1,1.9,2,2.9,3c0.2,0.1,0.5,0.7,0.7,0.8
			c0.9,0.7,1.7,1.6,2.7,2.2c0,0,0.4,0,0.4-0.1l1.4-1.3c0.2-0.1,0.1-0.5,0.2-0.6c0.1-0.1,0.4-0.2,0.5-0.3l1.4-1.9
			c0.7-0.7,1.5-1.3,2.4-1.8l0.8-1.1c0.1-0.1,0.4-0.2,0.4-0.3l0.8-1.1l1.6-1.6c0.1-0.1,0.1-0.4,0.2-0.5c0,0,0.4,0,0.4-0.1l0.9-1.2
			c0.1-0.2,0.7-0.5,0.9-0.6c0.1-0.1,0.3-0.5,0.4-0.6c0.2-0.1,0.8-0.5,0.9-0.6l1.6-2.2c0.1-0.2,0.7-0.5,0.9-0.6l1.9-2
			c0.5-0.4,0.8-0.8,1.1-1.3c0-0.8-0.5-1.1-0.8-1.2c-0.8-0.7-1.4-1.1-2-1.5c-0.1-0.1-0.2-0.4-0.3-0.5l-1.1-0.8
			c-0.2-0.5-0.9-0.6-1.2-1l-2.3-1.7c0,0-0.1-0.2-0.2-0.3l-1.9-1.4c-0.5-0.7-1.1-1.1-1.9-1.4l-1.5-1.1c-0.1-0.1-0.2-0.4-0.3-0.4
			l-2.9-2.1c0,0-0.1-0.3-0.3-0.4c-0.1-0.1-0.5-0.1-0.5-0.2l-2.6-1.9l-6.3,1l-0.1-0.5c1.1-0.4,2.4-0.7,3.8-0.9l1.2-0.4
			c0-0.2,0-0.7-0.1-0.8l-1.1-0.9c-0.2-0.8-0.8-1.2-1.3-1.5c-0.2-0.4-0.6-0.7-1-0.9C341.6,269.4,340.3,270.2,339.1,270.9z
			 M614.8,156.5c-4.2,1-8.1,2.3-12,3.6l-1.6,0.7c-4.4,1.4-8.8,2.8-12.9,4.6c-0.4,0.4-0.2,1.4,0.2,1.8c1,4.8,2.5,8.8,4,12.7
			c1.5,2.8,2.9,5.7,4.5,8.6c0,0,0,0.3,0.1,0.4c0.1,0.2,0.3,0.3,0.4,0.4c0.2,0,0.7-0.1,0.9-0.1c0.1-0.1,0.4-0.5,0.4-0.5
			c1.2-0.6,2.2-1.3,3.3-1.9c3.1-1.8,6.4-3.4,9.4-5.2c1.3-1,3-1.8,4.6-2.6c0.2-0.1,0.4-0.5,0.8-0.6l2.2-1.3c0.1-0.1,0.3-0.4,0.4-0.4
			c0.6-0.2,1-0.6,1.6-0.8c0.7-0.3,1.3-0.8,1.9-1.2c0.1-0.1,0.4,0,0.5-0.1c0.2-0.2,0.4-0.5,0.6-0.8c-0.5-0.7-0.9-1.6-1.3-2.5
			c-0.8-1.1-1.6-2.3-2.3-3.5c-1.5-3.7-2.9-7.4-4.6-10.9c0,0-0.2-0.2-0.2-0.2C615.4,156.3,615.1,156.4,614.8,156.5z M639.1,197.4
			l-1.3,1.3c-0.6,0.8-1.3,1.4-2.1,2c-1,1.2-2,2.2-3.1,3.3c-1.4,1.3-2.9,2.5-4.3,3.8c-0.6,0.6-1.2,1.2-2,1.7
			c-0.1,0.1-0.3,0.5-0.4,0.5c-0.2,0.1-0.8,0.5-0.9,0.6l-0.7,1c0,0-0.3,0-0.4,0.1c-0.1,0.1-0.4,0.6-0.5,0.7c-0.2,0.1-0.7,0.5-0.9,0.6
			c-0.1,0.1-0.5,0.7-0.6,0.8c-0.2,0.1-0.7,0.5-0.9,0.6c-0.6,0.8-1.5,1.4-2.1,2.2c-0.1,0.1,0,0.5,0.1,0.5c0.1,0.2,0.4,0.6,0.5,0.7
			c0.9,0.6,1.6,1.5,2.5,2c0.1,0.1,0.3,0.4,0.3,0.5l1.4,1c0.1,0.1,0.2,0.4,0.3,0.4l1.4,1c0.1,0.1,0.2,0.4,0.3,0.4l2.6,1.9
			c0.1,0.1,0.4,0.1,0.5,0.2l1.2,0.9l1.7,1.4c0.5,0.6,1.1,1.1,1.9,1.3l2,1.5l1.6,1.6c0.2,0.2,0.7,0.3,1,0.5c0.1,0,0.3,0,0.3-0.1
			c1.6-1.7,3.1-3.5,4.5-5.3c0.6-0.7,1.2-1.4,2-2c1.2-1.7,2.4-3.5,3.9-5.2c0.1-0.1,0.1-0.4,0.2-0.6c0.1-0.1,0.4-0.2,0.5-0.3l1.5-2
			c0.4-0.2,0.7-0.6,0.8-1.2c0.4-0.4,0.9-0.8,1.1-1.3c1-1.1,1.7-2.3,2.6-3.5c0.1-0.1,0-0.9-0.2-0.9c-0.9-0.5-1.8-1-2.5-1.7
			c-0.1-0.1-0.2-0.4-0.3-0.4l-1.1-0.8c-0.2-0.5-0.8-0.8-1.2-0.9c-0.9-1.2-2-2.1-3.1-2.7c-0.3-0.5-0.8-0.8-1.1-1
			c-0.2-0.1-0.5-0.8-0.7-0.9l-2.3-2.1c-0.5-0.6-1.1-1-1.5-1.7c-0.5-0.3-0.9-0.6-1.2-1C639.8,196.7,639.3,197.1,639.1,197.4z
			 M381.5,302.8c-0.2,0-0.7,0.1-0.8,0.1c-0.6,0.4-1.2,0.7-1.5,1.1c-2.1,1.1-3.7,2.6-5.8,3.6c-1.4,0.8-2.6,1.8-4.3,2.5
			c-0.1,0-0.3,0.5-0.5,0.5c-0.7,0.2-1.1,0.6-1.4,1c-0.1,0.3-0.5,0.5-0.7,0.6l-10,5.6c0,0-0.3,0-0.4,0.1c-0.1,0.1-0.4,0.5-0.4,0.5
			c-1,0.4-1.7,1-2.7,1.3c-0.2,0.1-0.5,0.5-0.8,0.6c-1.1,0.6-2.1,1.1-3.1,1.8c-0.7,0.8-1.9,1.2-2.7,1.9c0.1,1-0.1,1.7-0.3,2.4
			c-0.4,5.7-0.5,11.7,0,18c0,0.2,0.4,0.5,0.7,0.3c2.1-1.7,4.5-3.4,6.8-5.1c0.1-0.1,0.5-0.1,0.5-0.2c0.1-0.1,0.4-0.6,0.6-0.7
			c1.7-1,2.9-2.4,4.2-3.7c0,0,0.3,0,0.4-0.1c0.1-0.1,0.4-0.5,0.5-0.6c0.1,0,0.3-0.1,0.2,0c1-0.7,1.7-1.5,2.5-2.2
			c1.1-1,2.3-1.8,3.7-2.6c0.1-0.1,0.3-0.4,0.4-0.5c0.1,0,0.3,0,0.3-0.1c0.6-0.7,1.4-1.1,2.1-1.7c0.1-0.1,0.3-0.4,0.4-0.5
			c0.1,0,0.3,0,0.4-0.1c0.1-0.1,0.4-0.5,0.5-0.6l1.1-0.4c0.1,0,0.4-0.5,0.5-0.6c0.5-0.1,0.9-0.4,1.2-0.8c0.2-0.3,0.6-0.4,0.8-0.5
			c1.3-1.1,2.5-2,3.8-3l1.9-2c0.3-0.3,0.6-0.4,0.8-0.8c0.2-0.3,0.1-0.8,0.4-0.9c0.7-0.2,0.8-1,0.7-1.7l-0.4-2.7c0-1.6,0.4-3,0.2-4.8
			l0.3-1.2l0.1-4C381.6,303.2,381.5,302.9,381.5,302.8z M581.6,151l-14.5,3.9c-5.2,1.5-10.4,3.1-15.2,5c-0.2,0.1-0.5,0.4-0.5,0.7
			c-0.1,1.4-0.2,2.8,0,4.3c0.3,3.7,1.1,7.5,1.3,11c0,0.2,0.2,0.3,0.2,0.5c0,0.4-0.2,0.8,0,1.1c0.2,0.5,0.6,1.1,1.3,0.7l11.8-5.9
			l1.6-0.5c0.7-0.5,1.6-0.9,2.5-1.3c4.4-1.8,8.9-3.6,13.4-5.3l1.2-0.3c0.2-0.3,0.5-0.6,0.7-1l-0.4-2.6l-1.1-3.8l-1-6.4
			c0-0.1-0.2-0.2-0.4-0.3C582.3,150.8,581.9,150.9,581.6,151z M648.5,163.6c-2.7,1.1-5.3,2.3-7.8,3.5c-1.1,0.7-2.2,1.3-3.4,1.9
			c-1.4,0.6-2.6,1.5-4.2,2c-0.1,0-0.3,0.5-0.4,0.5c-0.2,0.1-0.8,0.1-0.9,0.2c-1.2,0.7-2.4,1.4-3.2,2.2l-1.2,0.5
			c-0.2,0.1-0.3,0.3-0.3,0.5c0,0.1,0.1,0.6,0.1,0.7c0.9,1.3,1.5,2.8,2.4,3.9c0.1,0.1,0.3,0.3,0.3,0.3c1.1,2.1,2.4,3.8,3.6,5.4
			c0.3,0.9,0.8,1.3,1.2,1.8l0.9,0.9c1.3,1.8,2.4,3.8,4,5.2c0.2,0.1,0.7,0.5,0.9,0.6c0.1,0,0.3,0,0.3-0.1c0.6-0.7,1.4-1.2,1.9-1.9
			c0.1-0.2,0.7-0.5,0.9-0.6l0.8-1.1l5.9-5.8c0.5-0.4,1-0.8,1.5-1.3c0,0,0.3,0,0.3-0.1c0.6-0.8,1.3-1.6,2.4-2.2l0.9-1.2
			c0.7-0.7,1.5-1.3,2.2-2.1c0.3-0.2,0.6-0.6,0.8-1L658,175c0-0.1-0.6-0.4-0.6-0.5c-1-1.3-2-2.4-2.8-3.7c-0.1-0.1-0.3-0.3-0.3-0.2
			c-0.6-1.2-1.5-2-1.9-3.2c-0.1-0.2-0.5-0.4-0.6-0.8c-0.3-0.7-0.8-1.2-1.2-1.8c-0.1-0.1,0-0.5-0.1-0.5l-1-0.7
			C649.3,163.4,648.7,163.5,648.5,163.6z M378.8,359.4c-0.1,0-0.5,0-0.6,0.1l-13.9,9.9c-0.1,0.1-0.5,0.1-0.6,0.2
			c-0.1,0.1-0.4,0.5-0.4,0.5c-1.3,0.6-2.2,1.5-3.2,2.2l-3,2.4c-0.7,0.4-1.4,0.8-2,1.3c-0.4,0.3-0.4,0.8-0.7,1.2
			c-1,0.3-1.8,0.8-2.2,1.5c-0.1,0.1-0.2,0.4-0.3,0.5c0,0.2-0.1,0.9-0.1,1.1l0.5,2.9c0.5,2.1,1.8,3.2,2.9,4.7l3.5,2.5l1.2-0.2
			c1.7-0.8,2.9-2,4.3-3c1.1-0.5,1.9-1.4,2.9-1.9l3.3-2.3c0.1,0,0.2-0.3,0.3-0.3c0.8-0.3,1.3-0.8,1.8-1.2l4.9-3.4
			c1-0.3,1.3-1.1,2.3-1.5c1.1-1,2.5-1.9,3.6-2.9c0.1-0.1,0.4-0.6,0.5-0.7c0.1,0,0.3,0,0.4-0.1l1.2-1.2c0,0,0.3,0,0.4-0.1
			c0.2-0.3,0.5-0.5,0.8-0.8c0-0.1,0-0.4-0.1-0.5c-0.6-0.2-1.2-0.6-1.6-0.8c-0.9-0.1-1.2,0.4-1.3,0.7c-1,1-2.1,1.7-3.2,2.4
			c-0.1,0.1-0.3,0.1-0.4,0.1c-0.1-0.2-0.1-0.4,0-0.5c1-0.8,1.8-1.7,2.9-2.6c0.1-0.1,0.4-0.5,0.5-0.6c0-0.1,0-0.4-0.1-0.4
			c-1.1-0.9-2.2-1.9-3-3.2c-0.1-0.2-0.4-0.6-0.5-0.7c-0.4-0.9-0.8-1.8-1-2.8l0-1.8C378.9,360,378.8,359.5,378.8,359.4z M452.8,415.6
			c-0.3,0.1-0.7,0.3-0.8,0.6c-0.1,0.2-0.3,0.7-0.2,0.9l0.2,1.4c-0.5,1.1-0.9,2.3-1,3.7c-0.1,0.9-0.6,1.7-0.5,2.7
			c0,0.2,0.1,0.9,0,1.1l-0.8,1.2l0.2,1.1c0,0.1,0.4,0.4,0.6,0.5c-0.3,0.1-1,0.2-1.3,0.3l-1.2,1.7c-0.3,0.8-0.9,1.5-1.2,2.4
			c0,0.3-0.1,0.8,0,1.3c0.1,0.6,0.3,1.1,0.5,1.6c0.1,0.3,0,0.7-0.2,0.9c-0.1,0.1-0.4,0.1-0.6,0.1c-0.1-0.5-0.3-0.9-0.6-1.1
			c-0.1,0.1-0.6,0.4-0.7,0.5l-0.7,1c0,0.1-0.4,0-0.5,0.1c-0.2,0.1-0.6,0.4-0.7,0.5c-0.5,0.5-0.6,1.1-1,1.7l0.2,1.4
			c-0.2,0-0.9,0.1-1,0.2c-0.2,0.1-0.4,0.3-0.3,0.5l0.3,1.8c-0.4-0.2-0.8-0.5-1-0.9c-0.2,0-0.7,0.1-0.9,0.1c-0.2,0.1-0.4,0.3-0.3,0.5
			l0.2,1.3c-0.1,0-0.5,0.1-0.6,0.1l-1.2-0.8c0,0-0.3,0.1-0.4,0.1l-1-0.7c-0.1,0-0.4,0-0.5,0.1c-0.1,0-0.3,0.4-0.3,0.4
			c-0.5,0.2-0.9,0.4-1.4,0.5l-1.2-0.3l-1.1,0.2c-0.2,0-0.9,0-1.1-0.1l-1.2-0.8c-0.5,0.2-0.9,0.5-1.6,0.5l-1.9-0.6
			c-0.4-0.2-0.8-0.6-1.1-0.9c-0.1-0.1-0.5-0.2-0.7-0.2c-0.1,0-0.6,0.2-0.7,0.1l-1.8-1.3c-0.1-0.1-0.4-0.1-0.5-0.2l-1.1-0.8
			c-0.2-0.1-0.9-0.2-1-0.3l-1-0.7c-0.3-0.5-0.7-1-1.1-1.4c-0.2-0.2-0.4,0.3-0.5,0.4c-0.1,0.1-0.4,0.1-0.4,0.1
			c-0.2-0.1-0.6-0.4-0.7-0.5c-0.1,0-0.4,0-0.5,0.1c-0.1,0.1-0.3,0.5-0.4,0.6c-0.1,0.4-0.2,0.8,0,1.1l0.9,1.3
			c0.1,0.1,0.5,0.3,0.6,0.4l1.7,2.7c0.8,1.4,1.4,2.9,2.3,4.4c0,0,0.5,0.3,0.6,0.5c1,1.6,2.4,2.9,4,3.9c0.1,0.1,0.6,0.2,0.8,0.2
			l1.9-0.3c0.1,0,0.2-0.2,0.2-0.3c0-0.6-0.3-0.9-0.7-1.1c-0.2-0.4-0.5-0.6-0.8-0.8c-1-1.1-1.6-2.5-2.2-3.9c0-0.1,0.1-0.5,0.2-0.5
			c0,0,0.3-0.1,0.4,0c0.2,0.1,0.4,0.1,0.5,0.3c0.1,0.4,0.3,0.8,0.6,1.2l1.6,2.2c0.4,0.2,0.9,0.6,1.1,0.9c0.9,0.6,1.8,0.9,3,0.8
			c2.7-1,5.5-2,8.1-3.1l11.2-3.6c0.3-0.1,0.3-0.5,0.1-0.6l-1.5-1.1l-1.4-2c-0.1-0.1-0.1-0.4-0.1-0.5c0-0.1,0.2-0.3,0.2-0.3
			c0.2-0.1,0.5-0.2,0.6,0l0.9,1.3l1.8,1.3c0.4,0.2,0.9,0.2,1.3-0.1c0.1-0.1,0.5,0,0.5-0.1l2.4-3.3c0.3-0.6,0.6-1.1,0.7-1.8
			c0-0.2,0.5-0.6,0.5-0.8c0-0.1-0.1-0.4-0.1-0.4l0.7-3.3c-0.1-4.3-0.4-8.6-0.7-12.9c-0.3-0.5-0.2-1-0.2-1.5l0.1-1.6l-0.2-1.4
			c0-0.1-0.7-0.6-0.8-0.6C454.3,415,453.6,415.4,452.8,415.6z M638.5,235.8l-1.9,2.6c-0.1,0.1-0.4,0.2-0.4,0.3l-0.8,1.1
			c-0.1,0.1-0.4,0.2-0.4,0.3l-0.8,1.1c-0.1,0.1-0.4,0.2-0.4,0.3l-0.8,1.1c-0.6,0.4-1,1-1.1,1.6l-1.2,1.1c-0.2,0.8-0.8,1.4-1.5,1.8
			l-1.7,2.3l-1.3,0.9l-0.8,1.1c-0.3,0.2-0.7,0.5-1,0.7c-0.1,0.5-0.5,0.8-1,0.9l-1.6,2.1c-0.1,0.1-0.4,0.2-0.4,0.3l-0.8,1.1
			c-0.8,0.9-1.8,1.6-2.8,2.4l-1.7,1.7c-0.1,0.2-0.8,0.5-0.9,0.7c-0.3,0.6-0.9,1-1.2,1.4c-0.2,0.2-0.2,0.5-0.1,0.7
			c0.6-0.1,1-0.5,1.4-0.7c0.2-0.1,0.7-0.1,0.9-0.1c-0.1,0.3-0.3,0.6-0.6,0.8c0,0-0.3,0-0.4,0.1c-0.1,0.1-0.4,0.6-0.5,0.7
			c-0.4,0.3-0.8,0.6-1.2,0.8c-0.2,0.1-0.7,0.1-0.9,0.1c0.1,0.5,0.4,0.8,0.6,1.2l2.9,2.1c0.1,0.1,0.4,0.1,0.5,0.2l1.1,0.8
			c0.4,0,0.8,0.4,1,0.6c0.1,0.2,0.7,0.2,0.9,0.3l1.7,1.2c0.5,0.1,1,0.3,1.4,0.6c0.1,0.1,0.5-0.1,0.6-0.1c1.6-1.3,2.4-3.1,2.9-5.1
			c0-0.2,0.4-0.5,0.4-0.6c0.6-2.1,1.5-3.9,2-6c0.1-0.6,0.6-1,0.9-1.5c0,0,0.4-0.1,0.4-0.1c0.1,0,0.2,0.2,0.3,0.2
			c0,0.1,0.1,0.3,0,0.4c-0.2,0.3-0.4,0.6-0.4,1c-0.1,0.8-0.5,1.5-0.5,2.4c-0.3,0.7-0.8,1.3-1,2c-0.1,0.4-0.3,0.9-0.2,1.5
			c0.9-0.1,1.2-0.8,1.6-1.3c0.3-1,0.7-1.9,1.1-2.8c0-0.1,0.2-0.4,0.2-0.4c0.2-1.3,0.6-2.5,1.1-3.4c0.1-0.2,0-0.6,0.1-0.7
			c0.2-0.3,0.4-0.6,0.4-1c0.1-0.6,0.3-1.2,0.5-1.8c0.1-0.2,0.4-0.6,0.5-0.7c0-0.1,0-0.5,0-0.6c0.5-1.7,1-3.3,1.7-4.9
			c0.1-0.2,0.5-0.7,0.6-0.8c0.1-0.1,0.4-0.1,0.6-0.1c0,0.7-0.2,1.4-0.2,2.1c0,0.1-0.2,0.3-0.3,0.4c-0.7,2.1-1.4,4.2-1.8,6.4
			c-0.5,1-0.7,2-1.1,3.1c0,0.1-0.3,0.4-0.3,0.4c0,0.7-0.3,1.2-0.3,1.9c0.2,0,0.4-0.1,0.5-0.2c0.9-1.3,1.8-2.5,2.7-3.7
			c0.2-1,0.7-1.9,1-2.8c0.1-0.2,0-0.6,0-0.7c0-0.1,0.4-0.5,0.4-0.6l0-1.3c0.5-0.8,0.8-1.8,0.8-2.8c0-0.2,0.6-0.7,0.6-0.9
			c0-0.5,0.1-0.9,0.2-1.3c0.8-2.5,1.5-5,2.3-7.4c0.1-0.3,0.4-0.6,0.7-0.6l0.2,1.3c-0.5,1.7-0.7,3.6-1.3,5.2c-0.5,1.2-0.7,2.6-1,3.8
			c0,0.2-0.3,0.4-0.3,0.5c0,0.6-0.2,1.1-0.5,1.5c0,0.8-0.3,1.4-0.4,1.9c0,0.1,0.1,0.4,0.1,0.5c1-0.2,1.5-1,1.8-1.6
			c0.1-0.2,0.5-0.3,0.5-0.4l1-1.3l0.6-3.2c0,0,0.3-0.4,0.3-0.5l0.1-1.2c0.6-2.3,1-4.7,1.6-7c0-0.1-0.1-0.6-0.1-0.6
			c-0.5-0.2-1-0.5-1.6-0.4l-3.4-2.4C639,235.7,638.5,235.8,638.5,235.8z M673.5,162.8c0,0-0.3,0-0.3,0.1c-1,1.2-2.1,2.4-3.1,3.5
			l-2.2,2.2c-0.2,0.5-0.9,0.9-1.3,1.4c-1,1.1-2,2.1-2.9,3.2c-0.1,0.1-0.4,0.2-0.4,0.3l-1.6,2.2c-0.1,0.1,0,0.7,0.1,0.8
			c1,1.2,1.8,2.6,2.9,3.7l2,1.7c0.8,1,1.6,1.9,2.4,2.8l1.9,1.4c0.2,0.1,0.2,0.4,0.4,0.5c0.3,0.1,0.9,0.3,1,0
			c0.4-0.8,0.9-1.7,1.6-2.4l0.5-1.7c0.8-0.8,1.6-1.7,2.2-2.7l1.3-2.4c0.2-0.5,0.5-0.9,0.8-1.3l0.5-1.6l1.4-1.9l2.1-4.2
			c0.3-0.6,0.6-1.2,0.9-1.9c0-0.1,0-0.3-0.2-0.3c-0.2-0.1-0.9-0.2-1-0.4c-0.4-0.4-1-0.5-1.4-1c-0.8-0.3-1.4-0.7-1.8-1.3
			c-0.7-0.5-1.4-1.2-2-1.9c-0.4-0.4-0.8-0.8-1.6-0.9C674.8,161.3,674.1,162,673.5,162.8z M431.7,372.1l-8.9,5.6
			c-1.2,0.8-2.5,1.7-3.7,2.5c-0.1,0.1-0.3,0.4-0.4,0.5c-0.1,0-0.4,0-0.4,0.1l-0.9,1.3c0,0.5-0.1,1,0,1.5l2,3.1c0,0.5-0.2,1-0.3,1.4
			c0,0.1,0.1,0.5,0.1,0.5c0.4,0.6,0.7,1.2,1.2,1.6c0,0,0,0.4,0.1,0.4c0.5,0.3,0.9,0.7,1.2,1.4c0,0.3-0.4,0.6-0.6,1
			c0.1,0.4,0.3,0.7,0.6,1c0.1,0.1,0.8-0.1,1-0.2l1.6-1.1l0.8-1.1c2.3-1.6,4.7-3.2,7.3-4.9c0,0,0.3-0.3,0.6-0.5
			c0.6-0.3,1.1-0.6,1.5-1.1c0-0.1,0.4-0.1,0.5-0.2l6.2-4.4c0.1-0.1,0.4-0.2,0.5-0.2l1.5-1.3c0.1-0.1-0.1-0.6-0.1-0.8
			c-0.1-0.2-0.4-0.6-0.5-0.7c-1.2-1.2-2.5-2.1-4.2-2.6c-0.1,0-0.4-0.1-0.5-0.2l-1.7-1.2c-0.1-0.1-0.4-0.1-0.5-0.2l-2.2-1.6
			c-0.1-0.1-0.4-0.1-0.5-0.1C432.2,371.5,431.8,371.8,431.7,372.1z M403.5,343.3l-1.2,0.4c-2.5,1.7-5.2,3.4-7.8,5l-7.1,4.6
			c-0.1,0-0.2,0.3-0.3,0.4l-1.6,0.8c-0.2,0.4-0.6,0.8-1.3,1c-0.3,0.1-0.5,0.5-0.8,0.7c-0.4,0.2-0.8,0.4-1.1,0.7l-0.9,1.2l-0.7,2.4
			l0.4,2.4c0.5,1,1.1,1.9,1.5,3c0.1,0.2,0.4,0.6,0.6,0.7l1.7,1.2c0.5-0.2,0.9-0.5,1.2-0.9c0.8-0.5,1.5-1.2,2.4-2
			c0.6-0.1,1-0.5,1.2-1c0.1-0.2,0.8-0.5,0.9-0.7c0.1-0.1,0.3-0.5,0.4-0.6c1.3-0.8,2.5-2,3.2-3.1c1.1-0.5,1.7-1.1,2.3-1.9
			c1.1-0.7,1.9-1.7,2.7-2.6l2.6-2.1c0.4-0.6,1-0.9,1.4-1.6c0,0,0.3,0,0.3-0.1c0.8-0.8,1.6-1.6,2.6-2.3l0.7-0.9c0,0,0.4,0,0.4-0.1
			c0.3-0.6,0.9-1.1,1.4-1.5c0.1-0.1-0.1-0.7-0.1-0.8l-0.8-1.2l-1.1-0.8c-0.2-0.1-0.2-0.4-0.4-0.5c-0.2-0.1-0.7-0.3-0.9-0.3
			L403.5,343.3z M623.8,141.6c-0.2,0-0.7-0.1-0.9-0.1c-0.2,0-0.6,0.3-0.8,0.4l-2.5,0.4l-4.4,1.2c-0.2,0-0.3,0.3-0.3,0.5
			c0.1,0.7,0.1,1.5,0.1,2.1c0.5,1.8,0.9,3.7,1.6,5.3l0.2,1.3c0.1,0.3,0.3,0.7,0.6,0.8c0.3,0.2,0.7,0.3,0.9,0.2
			c1.1-0.5,2.5-0.8,3.8-1.1c2.5-0.6,4.9-1.2,7.2-2.1c2.3-0.5,4.4-1,6.6-1.5c1.8-0.2,3.4-0.6,4.9-1.1c0.2-0.1,0.2-0.5,0.1-0.9
			l-0.5-1.4l-1-1.5c-0.1-0.9-0.1-1.8-0.1-2.6c-0.3-0.5-0.5-0.9-0.8-1c-4.1,0.4-7.9,0.4-11.8,0.6L623.8,141.6z M342.9,350.4
			c-0.4,0.4-0.8,0.6-1.1,1.1c-1,0.7-2,1.5-2.5,2.6c0.2,2.4,0.3,4.7,0.5,7.1l0.9,7.9c0.6,3.6,1.3,7.3,2,10.9l0.4,1.2
			c0.1,0,0.5,0,0.6-0.1c0.2-0.1,0.6-0.4,0.7-0.5c1.4-1.5,3.1-2.8,4.7-4.1c0.1-0.1,0.5-0.1,0.6-0.2l0.8-1c0.3-0.2,0.6-0.4,0.9-0.7
			c-0.5-2.3-1.5-4.2-2.3-6.2l-0.6-2.1l-3.3-17.1c0,0-0.5-0.5-0.5-0.4C343.9,349.1,343.5,349.8,342.9,350.4z M653.3,147
			c-2.8,0.6-5.7,1.1-8.3,1.8c-0.2,0.1-0.5,0.4-0.3,0.6c1,2.1,1.8,4.4,2.9,6.5c0.7,1,1.3,2.2,2,3.4c0.1,0.1,0.2,0.6,0.3,0.7
			c0.2,0.2,0.4,0.5,0.7,0.6c0.1,0,0.6,0,0.7-0.1l1-0.7l1.2-0.4c1.7-1.1,3.7-1.9,5.5-2.9c2-0.7,3.7-1.7,5.9-2.3
			c0.6-0.5,1.4-0.9,2.3-1.2l1.7-0.6c0.2-0.1,0.3-0.3,0.3-0.5c0-0.1,0-0.6-0.1-0.7L666,146c-0.1-0.1-0.4-0.5-0.7-0.4
			c-1.1,0.3-2,0.7-3.3,0.8l-1.7-0.2C658,146.2,655.6,146.6,653.3,147z M462.8,309.8c0.7,0.3,1.2,1,1.8,1.5l0.8,1.2
			c0.1,0.1,0,0.5,0.1,0.6c0.5,0.6,1.1,1.3,1.3,2.2l0.5,3.3c-0.1,0.9-0.1,2-0.4,2.7l-0.8,1.2c-0.1,0.2-0.2,0.8-0.3,1.1
			c-0.1,0.2-0.4,0.3-0.5,0.4c-0.6,0.9-1.3,1.6-1.8,2.4l-4.6,0.5c-0.3,0-0.8-0.1-0.9-0.3l-0.3-1.6l-0.5-1.4c-0.1-0.2-0.6-0.5-0.8-0.6
			c-0.2-0.1-0.9-0.2-1-0.3l-1.8-1.3c-0.1-0.1-0.2-0.4-0.3-0.4c-0.9-0.6-1.6-1.4-2-2.6l-0.2-1.4c0-0.2,0-0.9,0.1-1.1
			c0.3-0.3,0.6-0.7,0.6-1.1c0.5-0.9,1.2-1.5,1.8-2.2c0.6-0.7,1.4-1.2,2.3-1.7c1.3-0.3,2.3-0.9,3.5-1.3l1.8-0.3
			C461.7,309.5,462.3,309.6,462.8,309.8z M348.7,265.2c-1,0.4-1.8,1-2.8,1.5l-0.9,1.3c0.6,1.4,1.6,2.4,2.6,3.3
			c0.1,0.1,0.2,0.4,0.3,0.4c0.2,0.1,0.7,0.5,0.9,0.6c0.2,0.1,0.9,0.1,1.1,0.1l3.3-0.5c0.2,0,0.8,0.2,0.9,0.1l1.1-0.7l1.1-0.2
			c1.3,0,2.3,0.6,3.7,0.7c0.1,0,0.4,0.3,0.5,0.3c2.3,0.4,4.2,1.1,6.1,1.9c0.1,0,0.4,0.2,0.5,0.3c0.1,0,0.3-0.1,0.4-0.1
			c0.9,0.6,1.9,0.9,2.9,1.4l1.4,1c0.6,0,0.8,0.6,1.3,0.8l3.8,2.7c0.2,0.1,0.3,0.5,0.6,0.6c0.1,0,0.4,0,0.5-0.1
			c1.4-1.2,2.8-2.4,4.1-3.7c0.3-0.3,0.7-0.5,1-0.8c0.1-0.1,0-0.5-0.1-0.5c-0.6-0.5-1.3-0.8-2-1c-0.1,0-0.4-0.4-0.6-0.4l-1.5-0.5
			c-0.1,0-0.4-0.3-0.5-0.3c-1.7-0.6-3.3-1.2-4.9-1.7c-0.1,0-0.4-0.3-0.5-0.3c-0.1,0-0.5,0-0.6,0l-4.6-1.5c-0.1,0-0.5,0-0.6,0
			c-0.1,0-0.5-0.4-0.6-0.4l-1.7-0.3c-0.1,0-0.5-0.3-0.6-0.3c-1.4-0.1-2.6-0.6-3.7-1.2c-0.6,0-1.1-0.2-1.3-0.4
			c-3.2-0.8-6.2-1.7-9.4-2.2C349.3,265.1,349,265.1,348.7,265.2z M350.2,273.3c0,0.2,0.1,0.3,0.2,0.4l5.5,4c0.2,0.1,0.2,0.4,0.4,0.5
			c0.1,0.1,0.5,0.1,0.5,0.2l1.7,1.2c0.2,0.1,0.5,0.1,0.6,0.2c0.1,0.1,0.3,0.4,0.3,0.5l1.7,1.2c0.1,0.1,0.2,0.4,0.3,0.4l1.1,0.8
			c0.1,0.1,0.2,0.4,0.3,0.4l2.5,1.8l1.5,1.5l1.2,0.9c0.5,0.1,0.9,0.4,1.2,0.7c0.4-0.1,0.7-0.4,1-0.6c0.1-0.1,0.3-0.5,0.4-0.5l2-1.5
			c0.5-0.8,1.3-1.5,2.2-2.1c0.3-0.5,0.8-0.8,1.3-1.2c0-0.2-0.1-0.8-0.1-0.8c-0.6-0.7-1.2-1.3-1.9-1.7c-0.1,0-0.3,0.1-0.3,0
			c-0.7-0.4-1.3-0.5-1.9-0.9l-2.1-1.5l-1.7-0.8c-0.4-0.5-1-0.6-1.5-1c-0.8,0.1-1.3,0.4-2,0.6c-0.1,0-0.3-0.2-0.3-0.2
			c-0.2-0.3,0-0.7,0-1.1c-2.5-1.5-5.7-2.2-9.4-2.2C353.4,272.7,351.7,273,350.2,273.3z M672.4,190.3c-0.2,0.3-0.6,0.4-0.8,0.7
			l-0.9,1.9c-0.1,0.1-0.2,0.7-0.2,0.8c0,0.1,0.1,0.5,0.1,0.6c-0.1,0.6-0.1,1.2-0.3,1.8c-0.1-0.1-0.4-0.3-0.4-0.3
			c-0.1-0.1-0.1-0.4-0.1-0.6c-0.1,0-0.6,0-0.6,0.1c-1,1.9-2.3,3.5-3.6,5.2c-0.2,0.8-0.4,1.6-0.4,2.5c0,0.1,0.1,0.5,0.1,0.6l-0.3,1.2
			c0,0.1,0.1,0.5,0.1,0.5l-0.7,6.8c0,0-0.3,0.4-0.3,0.5c0,0.1,0,0.5,0.1,0.6c0.1,0.2,0.7,0.6,0.8,0.6c0.3,0.1,0.7,0.3,1.1,0.2
			c0.3-0.4,0.3-0.9,0.7-1.2c1.2-1.2,2.4-2.5,3.3-4c0,0,0-0.3,0-0.3c0.3-0.7,0.6-1.4,1-1.8l1.4-3.7l1.1-2.1c0.1-0.2,0.2-0.8,0.3-1
			c0.1-0.1,0.4-0.4,0.4-0.5l0.9-2.4c0.1-0.2,0.5-0.6,0.6-0.8c0.2-0.7,0.5-1.3,0.6-2.1l0.8-1.2c0.1-0.1-0.1-0.5-0.1-0.6
			c-0.2-0.2-0.4-0.5-0.7-0.5c-0.4-0.1-0.9-0.1-1.4,0.1c-0.6-0.5-1.2-1.3-1.9-1.7C672.8,190.1,672.4,190.2,672.4,190.3z M348.3,381.7
			l-2.8,2.7c-0.2,0.2-0.1,0.5-0.3,0.7c-0.2,0.2-0.4,0.3-0.5,0.5c-0.5,1-0.8,2.2-1.2,3.3c0,0.1-0.3,0.4-0.3,0.5c0,0.7,0,1.4,0.1,2.2
			l0.8,1.2c0.1,0.1,0.5,0.3,0.6,0.4c0.4,0.8,1.1,1.4,1.7,2c0.2,0.2,0.6,0.4,0.9,0.4c0.7,0.1,1.3,0.2,2.1,0c1.1-0.3,2.3-0.6,3.2-1.1
			c1.5-0.7,2.9-1.5,4.2-2.3c0.1-0.1,0.3-0.4,0.3-0.5c0.1-0.3-0.2-0.5-0.4-0.6c-1.5-1.1-3-2.1-4.2-3.5c-0.2-0.2-0.5-0.6-0.6-1
			c-0.1-0.3-0.5-0.5-0.7-0.8c-0.3-0.6-0.7-1.1-0.9-1.8l-0.4-2.5c0-0.1-0.4-0.4-0.5-0.4C348.9,381,348.6,381.4,348.3,381.7z
			 M459.2,310.5c-1.1,0.6-2.3,1-3.4,1.7c-1.3,0.8-2.5,1.8-3,3.2c-0.3,0.7-0.5,1.5-0.5,2.4c0.2,0.6,0.5,1.1,0.8,1.8l1.8,1.3
			c0.2,0.1,0.2,0.5,0.5,0.5c0.7,0.2,1.4,0.4,2.1,0.8c0.2,0.1,0.6,0.1,0.9,0.1c0.3-0.1,0.7-0.1,1-0.3l1.2-0.8c0.9-0.9,1.7-1.9,2.4-3
			c0.1-0.1,0.2-0.8,0.3-1c0.4-0.4,0.6-1.1,0.6-1.8c0.3-0.6,0.3-1.4,0.3-2.2c-0.1-0.6-0.5-1.1-0.9-1.4c0,0,0-0.4-0.1-0.4l-1.4-1
			c-0.1-0.1-0.7-0.3-0.9-0.2L459.2,310.5z M344.6,325.7l-1.1,0.2c-0.6,0.4-1.1,0.9-1.6,1.3c0,0.9-0.3,1.6-0.7,2.1
			c0.1,0.7-0.1,1.4-0.2,2c0,0.2,0.2,0.9,0.2,1.1c-0.4,4.8-0.9,9.6-1.5,14.3c0,1.4-0.1,2.7,0,4.2c0.1,0,0.3,0,0.3-0.1
			c1.1-0.6,1.9-1.3,2.8-2c0.6-0.8,1.6-1.4,2.1-2.3c-0.8-7.3-0.9-14-0.3-20.2C344.7,326.2,344.6,325.8,344.6,325.7z M583.6,296.8
			c-0.6,1-0.9,2.2-1.2,3.3c0,0.2-0.4,0.5-0.4,0.6c-0.4,1.3-1,2.4-1.6,3.5c-0.5,1-1,1.9-1.5,2.9l-1.3,2.4c-0.1,0.2-0.2,0.8-0.4,1
			c-0.4,0.6-0.6,1.4-1.1,1.9c-0.1,0.1-0.2,0.9-0.3,1l-1.7,3c-0.2,0.3-0.3,0.6-0.2,1.1c1-0.4,1.6-1.1,2.2-1.8
			c1.9-1.4,3.7-2.9,5.2-4.5c0.1-0.1,0.1-0.5,0.2-0.6l0.8-1.1c0.7-1.5,1.5-2.9,2.3-4.3l1.1-2.6c0.6-1,0.9-2.1,1.4-3.2
			c0-0.1,0.1-0.3,0.1-0.4c-0.1-0.2-0.3-0.7-0.6-0.8c-0.9-0.3-1.6-0.9-2.4-1.5C584,296.7,583.7,296.8,583.6,296.8z M408.1,348.5
			l-2.4,2.1c-0.9,0.8-1.8,1.5-2.5,2.5c0,0-0.3,0-0.3,0c-1,1-2,1.9-3,2.7c-0.6,0.5-1.3,1-1.9,1.6c-0.5,0.5-1.3,0.9-1.7,1.6
			c0,0-0.4,0-0.4,0.1l-0.7,1c-0.1,0.2-0.7,0.5-0.8,0.6c-0.7,0.9-1.5,1.7-2.4,2.5c-0.6,0.1-1,0.6-1.3,1l-1.8,1.3l-0.7,1
			c-1,0.2-1.4,1-1.8,1.7c0,0,0,0.3,0.1,0.4c0.6,0.4,1.8,0.6,2.6,0.2c0.3-0.2,0.5-0.8,0.7-0.8c0.5-0.1,0.9-0.4,1.2-0.8
			c0.8-0.5,1.7-1.1,2.4-1.8l0.8-1c0.7-0.2,1.1-0.6,1.3-1c1.1-0.7,1.8-1.6,2.6-2.4c0.6-0.5,1-1.1,1.7-1.5c0.8-1,1.8-1.9,2.4-3
			l1.4-1.3l1-1.4l1.3-1.2l1-1.4l1.6-1.6c0.2-0.2,0.2-0.7,0.1-1C408.4,348.5,408.2,348.5,408.1,348.5z M491.2,361.3
			c0.1,0.1,0.1,0.4,0.1,0.6c-0.4,0.1-1.3,0.1-1.6,0.5l1.4-0.2c0,0.2,0.2,0.7,0.1,0.8c-0.1,0.2-0.4,0.8-0.6,0.9l-4,2.8
			c-0.9,0.5-1.7,1.2-2.8,1.6c-0.1,0-0.4,0.4-0.4,0.4l-11.6,5.9c0,0-0.3,0.4-0.4,0.4c-0.1,0.1-0.6,0-0.7,0.1
			c-0.8,0.7-2.1,1.1-3.3,1.5c-0.2,0.1-0.4,0.6-0.5,0.6l-1.4,0.5c-0.5,0.3-0.9,0.6-1.6,0.9c-0.9,0.4-1.7,0.8-2.9,1
			c-0.2,0.4-0.7,0.7-1.1,0.9c-0.1,0-0.5,0-0.6,0.1c-1.1,0.6-2.5,1.1-3.9,1.7c-0.3,0.4-1,0.5-1.4,0.2c0-0.1,0.2-0.4,0.3-0.4
			c0.5-0.1,0.9-0.4,1.2-0.7l1.5-0.5c1.4-0.8,3-1.6,4.8-2.2l1.5-1c0.1-0.1,0.5-0.1,0.5-0.1c2.9-1.7,6-3.1,9-4.7
			c0.1-0.1,0.5-0.8,0.7-0.8l1.6-0.3c0.2,0,0.5-0.7,0.7-0.8c0.1-0.1,0.6,0,0.7-0.1l1.5-1c0.1-0.1,0.5-0.1,0.6-0.1
			c0-0.3-0.3-0.5-0.4-0.7l2-0.3c0.2,0,0.5-0.8,0.7-0.8l1.4-0.2c0.1-0.3,0.2-0.8,0.4-0.8l1.3-0.2c0.7-0.7,1.7-1.3,2.7-1.9
			c0.4-0.2,0.9-0.3,1.4-0.5c0.3-0.4,0.7-0.9,1-1.4c0.1-0.1,0.1-0.3,0.1-0.5l-1.7,0.3c-0.1-0.3,0.1-0.6,0.3-0.8c0,0,0.4,0,0.5-0.1
			c0.5-0.4,1.2-0.7,1.9-1c0.2-0.1,0.3,0,0.5,0C490.8,361.1,491.2,361.2,491.2,361.3z M676.9,151.3c-1.6,0.3-2.8,0.8-3.9,1.5
			c-0.1,0.1-0.3,0.3-0.2,0.5c0.7,0.9,1.2,1.9,1.8,2.8c0.4,0.3,0.5,0.8,1,0.9c0.4,0.3,0.8,0,1.4-0.1l1-0.6c0.2-0.1,0.9-0.1,1-0.2
			c0.8-0.5,1.5-1.1,2-2c-0.2-0.7-0.7-1.1-1.1-1.6l-1.5-1.6c-0.1-0.1-0.5-0.2-0.6-0.2C677.4,150.8,677.2,151.1,676.9,151.3z
			 M588.5,299.7c-0.2,0.1-0.6,0.6-0.6,0.8l-0.5,1.5c0,0.1-0.3,0.4-0.4,0.6l-1.1,2.6l-1.5,2.6c-0.1,0.2,0.1,0.7,0.2,0.7
			c1.1-0.6,2-1.4,2.6-2.1c0.8-0.4,1.2-0.7,1.8-1c0.7-0.7,1.5-1.3,2-1.9c0.2-0.2,0.3-0.9,0.4-1.1c0.1-0.2,0.4-0.6,0.5-0.7
			c0-0.1,0-0.4-0.1-0.4l-1.4-1.1c-0.5-0.1-1-0.3-1.4-0.6C588.8,299.6,588.5,299.7,588.5,299.7z M448.8,253.9c0,0,0.1,0.3,0.1,0.3
			c-0.1,0.9-0.3,1.8-0.3,2.8c0,0.1-0.4,0.5-0.4,0.6c0,1.1-0.4,2-0.6,3.1c0,0-0.2,0.3-0.3,0.5c0,0.1,0,0.5,0,0.6l-1,3.1
			c0,0.1,0,0.5,0,0.6c-0.3,0.4-0.5,0.9-0.5,1.5c0,0.1-0.4,0.5-0.4,0.7c0,0.6-0.2,1.1-0.5,1.5c0,0.7-0.1,1.2-0.5,1.5
			c0,0,0.1,0.3,0,0.4c-0.4,0.6-0.6,1.3-0.7,2.1c-0.3,0.4-0.6,0.8-0.8,1.3c-0.1,0.2-0.5-0.1-0.7-0.1c0-0.2-0.2-0.7-0.1-0.9
			c0-0.1,0.3-0.4,0.3-0.5l1-3.1c0-0.1,0.3-0.4,0.3-0.5c0-0.6,0.2-1.1,0.4-1.4c0.2-1.1,0.6-2.1,0.9-3c0.9-3,1.6-6,2.6-8.9
			c0-0.1,0-0.5,0-0.5c0.4-0.6,0.6-1.3,0.8-2.1C448.5,253.6,448.7,253.8,448.8,253.9z M323.7,283.2c-0.1,0.1-0.4,0.5-0.4,0.6
			l-0.1,1.1c-0.5,0.7-0.6,1.7-0.4,2.7c0.2,0.9,0.8,1.5,1.2,2.4c0.8,0.7,1.5,1.7,2.2,2.7c0.1,0.1,0.4,0.3,0.5,0.3
			c0.3,0.1,0.5-0.2,0.4-0.4l-0.5-2.9l0-1.9l-0.6-1.2c-0.3-0.6-0.8-1-1.1-1.6l-0.2-1.5c0-0.1-0.4-0.4-0.6-0.4
			C324.1,283.1,323.7,283.2,323.7,283.2z M663.7,203.7l-0.6,0.1c-0.1,0.4-0.3,0.8-0.8,1.1c-0.3,0.7-0.8,1.3-1.2,1.8
			c-0.2,0.2-0.1,0.5-0.3,0.6c-0.2,0.2-0.5,0.3-0.5,0.5c-0.3,1-0.4,2.1-0.3,3.3c0,0.1,0,0.4,0.1,0.4l1.1,0.9c0.2,0.2,0.6,0.3,0.9,0.4
			c0.1,0,0.3,0,0.4-0.1c0.3-0.2,0.4-0.5,0.4-0.8c0.4-2.6,0.5-5.3,0.8-7.9C663.8,204.1,663.8,203.8,663.7,203.7z M676.4,144.5
			l0.2,1.2c0,0.2,0.3,0.9,0.4,1c0.5,0.3,0.7,0.8,1,1.2c0.1,0.1,0.6,0.5,0.7,0.4l3.4-1.1c0.2-0.1,0.4-0.4,0.5-0.7
			c0-0.1-0.1-0.6-0.1-0.7c-0.4-0.6-0.8-1.1-1.3-1.6l-1.9-0.1C678.4,144.1,677.3,144.4,676.4,144.5z M687,151.1
			c-0.6,0.3-1,0.8-1.6,1.2c-0.2,0.2-0.2,0.5-0.4,0.6c-0.2,0.2-0.8,0.5-0.9,0.7c-0.1,0.1-0.4,0.5-0.4,0.6c0,0.1,0,0.6,0.1,0.6
			c0.4,0.2,0.8,0.5,1,1l2,1.4c0.1,0,0.4,0,0.4-0.1c0.1-0.1,0.3-0.3,0.3-0.4l1-4.8c-0.2-0.3-0.7-0.6-1.1-0.9
			C687.4,151,687.1,151.1,687,151.1z M450.5,267.7c0,1.5-0.3,2.8-0.4,4.2c0,0.1-0.3,0.5-0.4,0.6c0,0.1,0.1,0.4,0.1,0.4
			c-0.8,3.2-1.2,6.5-2,9.5c-0.1,0.2-0.5,0.8-0.7,0.9c-0.1,0-0.3,0.1-0.4,0.1c-0.2,0-0.3-0.2-0.4-0.4c0-0.1-0.1-0.4-0.1-0.5
			c0-0.2,0.2-0.7,0.2-0.9c0.1-0.2,0.6-0.6,0.6-0.9c0.8-2.9,1.4-6,2-9.2c0-0.1-0.1-0.5-0.1-0.6c0.1-1.1,0.5-2,0.5-3.1
			c0-0.1,0.4-0.5,0.4-0.6c0-0.4,0-0.8,0.2-1.1c0.1-0.2,0.3-0.4,0.5-0.3l0.2,1.3C450.9,267.3,450.5,267.6,450.5,267.7z M645.6,239.3
			l-0.5,1.6c-0.2,1.1-0.4,2.2-0.7,3.2c0,0.1-0.3,0.4-0.3,0.5c0,0.1,0.1,0.4,0.1,0.5l-0.5,1.7l0.2,1.2c0.4-0.4,0.7-0.9,0.9-1.4
			l1.2-1.7c0.1-0.1,0.1-0.4,0.2-0.5l0.8-1.1c0.1-0.7,0.7-1,1-1.6c0.1-0.2,0.1-0.5,0.3-0.7c0.1-0.1,0.4-0.3,0.4-0.4
			c0-0.1-0.1-0.5-0.1-0.6c-0.2-0.2-0.4-0.5-0.7-0.6c-0.1,0-0.5,0.1-0.6,0.1c-0.1,0-0.5-0.3-0.6-0.4
			C646.3,239.2,645.8,239.3,645.6,239.3z M666.6,140.7c-0.1,0-0.2,0.4-0.2,0.6c0.1,0.4,0.3,0.8,0.4,1.3c0.1,0.5,0.6,0.8,1.2,0.9
			l1.3,0l3.7-0.6c0.1,0,0.4-0.3,0.3-0.5l-0.2-1.1c0-0.3-0.5-0.3-0.8-0.4c-1.4-0.2-3-0.1-4.4-0.3
			C667.5,140.6,667.1,140.6,666.6,140.7z M429.8,282.1c0,0.1,0.1,0.3,0.1,0.4c-1,1.7-1.9,3.5-1.7,6c-0.3,0.7-0.3,1.6-0.4,2.3
			l-1.1,1.5c0,0.1-0.4,0.1-0.6,0.1c-0.1-1.4,0.1-2.7,0.4-3.9c0-1.1,0.3-2,0.7-2.9c0,0-0.1-0.3,0-0.3c0.4-0.6,0.6-1.3,0.8-2
			c0.1-0.2,0.7-0.7,0.7-0.9c0-0.3,0.2-0.8,0.8-0.6C429.4,281.7,429.7,282,429.8,282.1z M520.8,342.4c-0.7,0.3-1.2,0.7-1.7,1.1
			l-1.2,0.2c-0.3,0-0.3,0.6-0.4,0.7c-0.5,0.3-1.2,0.7-1.7,0.5c-0.4,0.2-0.5,0.7-0.7,1c-0.1,0.1-0.6,0-0.7,0.1
			c-0.2,0.2-0.5,0.7-0.9,0.7c-0.5,0-1,0-1.6,0.1c-0.2,0-0.6-0.3-0.4-0.5l2.1-1.5c0,0,0.3,0,0.3-0.1c0.5-0.4,1.2-0.8,1.9-1.1
			c0.1,0,0.4-0.5,0.5-0.6c1.4-0.4,2.3-1.1,3.1-1.9l1.7-0.3c0,0.2,0.2,0.7,0.1,0.8C521.3,342,521.1,342.4,520.8,342.4z M337.6,277.1
			c0,0,0,0.4,0.1,0.4c0.4,0.2,0.7,0.6,0.9,1.1c0,0,0,0.3,0.1,0.4c0.1,0.1,0.4,0.3,0.4,0.3c0.5,0.7,1.1,1.4,1.6,2.3
			c0.1,0.1,0.1,0.4,0,0.6c-0.1,0.1-0.2,0.3-0.4,0.2c-0.5-0.2-0.7-0.7-1-1.1c-0.4-0.3-0.7-0.7-0.8-1.2c-0.5-0.3-0.8-0.8-1-1.2
			c-0.1-0.1-0.5-0.3-0.5-0.4l-1.9-2.4c0.3,0,1-0.3,1.1-0.2L337.6,277.1z M418,413.1c-0.2,0.3-0.6,0.6-0.8,1
			c-0.1,0.1,0.1,0.6,0.1,0.6c0.4,0.2,0.9,0.3,1.5,0.3l1.2,0.2l1.9-0.3l1.2-0.4l-0.1-0.6c-0.7-0.2-1.4-0.3-2.1-0.5c-0.5,0-1,0-1.4,0
			c-0.1,0-0.5-0.3-0.6-0.4C418.7,412.9,418.1,413,418,413.1z M415.3,295.6c0.1,0.1,0.1,0.6,0.1,0.7c0,0.2-0.2,0.7-0.2,0.8
			c-0.3,0.5-0.5,1.1-0.6,1.9l-1.1,1.5c0,0-0.3,0.1-0.4,0.1c-0.3-0.2-0.6-0.5-0.5-0.8l0.2-1.1c0.1-0.4,0.4-0.7,0.4-1
			c0-0.6,0.3-1.1,0.4-1.6c0.1-0.2,0.5-0.8,0.6-0.8c0.2-0.1,0.6-0.2,0.8,0C415.1,295.4,415.3,295.5,415.3,295.6z M340.4,274.7
			c0.1,0.1,0.2,0.6,0.3,0.8c0.5,1.2,1.4,2,2.1,3c0.1,0.2-0.1,0.4-0.2,0.5c0,0-0.4,0.2-0.5,0.1c-0.9-0.7-1.6-1.6-2.5-2.4
			c-0.2-0.6-0.5-0.9-0.8-1.3c-0.1-0.1-0.1-0.4-0.1-0.5c0-0.1,0.1-0.5,0.2-0.5c0.1-0.1,0.4-0.1,0.4-0.1
			C339.7,274.4,340.1,274.4,340.4,274.7z M472,377.6c0,0.1-0.2,0.2-0.2,0.2c-0.8,0.4-1.4,0.9-2.3,1.2c-0.2,0.1-0.3,0.3-0.3,0.4
			c0,0.1,0.1,0.5,0.1,0.7c-0.9,0.6-1.9,1.1-2.8,1.8c-0.2,0.1-0.6-0.1-0.6-0.4c0,0,0.1-0.3,0.2-0.4c0.5-0.1,1.1-0.5,1.1-1l0.8-1.1
			c1.3-0.5,2-1.4,3.3-1.8c0.2-0.1,0.5,0,0.6,0.2C471.9,377.4,472,377.6,472,377.6z M510.9,348.1c0,0.1,0.1,0.5,0.1,0.6
			c-0.1,0-0.6,0.1-0.8,0.3c-0.2,0.3-0.7,0.2-0.9,0c-0.1-0.2-0.4-0.2-0.5-0.1c0,0.1,0.1,0.5,0.1,0.6c-0.2,0.4-0.6,0.6-1,0.8
			c-0.2,0.1-0.4-0.1-0.6-0.2c0-0.4,0.3-0.8,0.2-1.3c0.2-0.3,0.5-0.5,1-0.6c0.3-0.5,0.9-0.9,1.5-1.1c0.4-0.1,0.8-0.1,1.2-0.1
			L510.9,348.1z M433.6,330.6c0.1,0.1,0.2,0.6,0.1,0.7c-0.4,1.3-0.9,2.5-1.6,3.7c0,0-0.3,0.1-0.3,0.1c-0.2,0-0.3-0.2-0.4-0.4
			c0,0-0.1-0.3-0.1-0.4c0.1-0.2,0.5-0.6,0.6-0.8c0.2-0.9,0.4-1.8,0.8-2.7c0.1-0.2,0.2-0.6,0.5-0.5
			C433.2,330.4,433.5,330.5,433.6,330.6z M460.2,385.7l-1.2,0.8l-1.1,0.3c-0.4,0.1-0.8,0.3-1.1,0.5c-0.2-0.1-0.4-0.2-0.3-0.4
			c0.1,0,0.5,0,0.5-0.1l0.8-1c0.6-0.4,1.2-0.8,1.7-1.3c0.5-0.2,1-0.4,1.7-0.5c0.1,0.2,0.1,0.4,0,0.5L460.2,385.7z M345,319.8
			c-0.1,0.5-0.5,0.9-0.8,1.3c-0.3,0.9-0.5,1.6-0.7,2.5c-0.1,0.2,0.2,0.3,0.3,0.4c0.3,0.1,0.7-0.1,0.9-0.5c0.4-0.7,0.6-1.7,0.6-2.7
			c0-0.4,0.2-0.7,0.1-1C345.4,319.5,345,319.6,345,319.8z M689,146.2c-0.8,0.5-1.8,0.8-2.9,1.2c0,0.2,0,0.7,0.1,0.8
			c0.2,0.2,0.4,0.5,0.7,0.5c0.1,0,0.6,0,0.7-0.1c0.2-0.1,0.5-0.7,0.7-0.8c0.1,0,0.4,0,0.4-0.1c0.2-0.3,0.6-0.6,0.9-0.8
			c0-0.1,0-0.5-0.1-0.5C689.3,146.2,689.2,146.1,689,146.2z M443.1,338.4c0.1,0.2,0.2,0.7,0.2,0.9l-0.7,1.3c0,0.1-0.6,0.1-0.7,0.1
			c-0.3-0.1-0.5-0.3-0.7-0.6c0,0-0.1-0.3-0.1-0.4c0.2-0.3,0.3-0.6,0.5-0.9c0.1-0.3,0.5-0.4,0.9-0.6c0.1-0.1,0.3,0,0.4,0.1
			C442.9,338.2,443.1,338.3,443.1,338.4z M455.6,387.9c0.1,0,0.3,0.1,0.3,0.3l-1.8,0.3c-0.2,0-0.7-0.2-0.9-0.2
			c-0.1-0.1-0.3-0.2-0.2-0.3c0-0.3,0.4-0.4,0.7-0.6c0.1,0,0.6-0.2,0.7-0.1C454.8,387.5,455.1,387.8,455.6,387.9z M566.7,310.2
			c-1.1,0.5-1.9,1.1-2.7,1.7c-0.1,0.1-0.5,0.2-0.3-0.2c0.1-0.1,0.4-0.6,0.7-0.8c0.7-0.4,1.6-0.8,2.4-1.3c0.1-0.1,0.3,0.2,0.2,0.4
			C566.8,310.1,566.6,310.2,566.7,310.2z M532.9,333.9c-0.1,0.1-0.4,0.6-0.6,0.7l-1.1,0.4c-0.1,0-0.4,0.5-0.5,0.6
			c-0.3,0.1-0.7,0.2-0.9,0.1c0.1-0.2,0.4-0.6,0.5-0.6l2.9-1.7c0.1-0.1,0.5-0.1,0.4,0C533.6,333.4,533,333.7,532.9,333.9z
			 M485.4,364.4c-0.6,0.5-1.5,0.9-2.2,1.3c-0.3,0.4-0.6,0.8-0.9,1.1c0-0.2-0.2-0.7-0.1-0.9c0-0.2,0.2-0.4,0.3-0.4
			c1-0.4,1.7-0.9,2.5-1.3L485.4,364.4z M681.7,141.7c-0.1,0-0.2,0.2-0.3,0.3c-0.1,0.3,0.3,0.4,0.4,0.5c0.1,0.1,0.7,0.2,0.8,0.2
			c0.1,0,0.6-0.1,0.7-0.1c0.1,0,0.2-0.2,0.2-0.3c0-0.1,0-0.3-0.2-0.3c-0.1,0-0.4-0.1-0.5-0.2C682.6,141.8,682.1,141.7,681.7,141.7z
			 M454.5,386.6c-0.8,0.1-1.4,0.1-2-0.1c0.5-0.4,1.1-0.7,1.8-0.9c0.1,0,0.7-0.3,0.5,0.1C454.7,386,454.7,386.5,454.5,386.6z
			 M443.3,391c-0.3,0.2-0.7,0.3-1.1,0.4c-0.3,0.1-0.5,0.5-0.4,0.8c0.9-0.1,1.6-0.4,2.3-0.7c0.1,0-0.1-0.3-0.3-0.4
			C443.8,391.1,443.4,390.9,443.3,391z M530.3,333.2c-0.1,0.1-0.8,0.1-1,0.2c-0.1-0.3,0-0.6,0.3-0.8l1.7-0.8
			c0.1-0.1,0.5-0.1,0.5,0.1C531.4,332.3,530.7,332.6,530.3,333.2z M448.8,388.9l-1.4,0.2c-0.1,0-0.2,0.2-0.2,0.3
			c-0.1,0.3,0.2,0.5,0.4,0.4l1.3-0.2c0.1,0,0.2-0.2,0.2-0.3c0,0,0-0.2,0-0.2C449.1,389,448.8,388.9,448.8,388.9z M459,384.1
			c0,0.1-0.2,0.3-0.2,0.3l-1.5,0.2c-0.1-0.3,0-0.7,0.3-0.8l1.1-0.2c0.1,0,0.3,0.1,0.3,0.2C459,383.9,459.1,384,459,384.1z
			 M561.5,313.8c-0.1,0.1-0.6,0.1-0.8,0.1c-0.1-0.3,0-0.7,0.3-0.8l1.2-0.3L561.5,313.8z M445.2,390.2c-0.1,0-0.2,0.2-0.2,0.3
			c-0.1,0.3,0.2,0.4,0.4,0.4c0.1,0,0.4,0,0.4-0.1c0.2-0.1,0.6-0.4,0.7-0.5c-0.1-0.1-0.4-0.3-0.5-0.3
			C445.9,390,445.3,390.1,445.2,390.2z M617.8,261.6c-0.1,0.1-0.6,0.1-0.8,0.1c-0.1-0.5,0.3-0.8,0.6-1.1c0,0,0.4-0.1,0.5-0.1
			c0,0.1,0.1,0.5,0.1,0.6C618.1,261.3,617.9,261.5,617.8,261.6z M459.6,383l1.8-0.3l0.1,0.7C460.8,383.5,460.1,383.4,459.6,383z
			 M446.8,428.5l-0.7,1c-0.1,0.1,0.1,0.6,0.1,0.8c0.5-0.3,0.7-0.9,0.7-1.6C446.9,428.8,446.9,428.4,446.8,428.5z M570,308
			c-0.2,0-0.7,0.3-0.7,0c0.1-0.4,0.5-0.6,0.8-0.7c0.1,0,0.5-0.1,0.6-0.1c0.1,0.2,0,0.4-0.2,0.5C570.4,307.8,570.1,308,570,308z
			 M505.5,351.3c-0.1-0.3,0-0.6,0.3-0.8c0.1-0.1,0.6-0.1,0.8-0.1c0.1,0.2,0,0.4-0.2,0.5C506.2,351,505.9,351.3,505.5,351.3z
			 M431.6,398.2c-0.1,0-0.5,0.1-0.6,0.1c-0.2,0.1-0.6,0.4-0.9,0.6c0.4,0,1.1-0.1,1.6-0.2L431.6,398.2z M424.2,401.1
			c0,0.2,0.2,0.2,0.3,0.3c0.3,0.1,0.7-0.1,1-0.4C425.2,400.9,424.6,401,424.2,401.1z M493.5,359.8c-0.1,0.1-0.4,0.1-0.6,0.1
			l-0.1-0.5c0.3,0,0.8-0.2,1-0.1C493.8,359.4,493.6,359.7,493.5,359.8z M433.5,394.9c-0.2-0.1-0.4-0.2-0.3-0.4c0.3,0,0.8-0.2,1-0.1
			L433.5,394.9z M528.2,333.7c0.1-0.2,0.3-0.4,0.4-0.4c0.2,0,0.4,0.2,0.3,0.4C528.7,333.7,528.3,333.8,528.2,333.7z M428.8,442.6
			c0,0.2,0.5-0.1,0.8-0.1c0-0.1-0.2-0.2-0.3-0.3C429.1,442,428.9,442.2,428.8,442.6z M524.2,339.4c-0.2,0.2-0.5-0.1-0.5-0.3
			c0.2,0,0.6-0.2,0.8,0C524.4,339.2,524.2,339.3,524.2,339.4z M447.9,425.6c-0.4,0-0.1,0.5-0.1,0.8l0.2,0L447.9,425.6z M534.6,332.6
			c0.1-0.1,0.3-0.8,0.4-0.2c0,0-0.2,0.2-0.2,0.3L534.6,332.6z"/>
	</g>
</g>
</svg>
