<?xml version="1.0" encoding="utf-8"?>
<!-- Generator: Adobe Illustrator 19.1.0, SVG Export Plug-In . SVG Version: 6.00 Build 0)  -->
<svg version="1.1" xmlns="http://www.w3.org/2000/svg" xmlns:xlink="http://www.w3.org/1999/xlink" x="0px" y="0px"
	 viewBox="0 0 960 250" style="enable-background:new 0 0 960 250;" xml:space="preserve">
<style type="text/css">
	.st0{display:none;}
	.st1{display:inline;fill:#29ABE2;}
	.st2{fill:#FFFFFF;}
</style>
<g id="Layer_2" class="st0">
	<rect x="-1.7" class="st1" width="961.7" height="250"/>
</g>
<g id="Layer_1">
	<g>
		<path class="st2" d="M328,73.2c-5.1,0-10.8-0.4-16.5-0.9c0.7,1.1,0.7,3.1,0.2,4.4c-15.8,63.4-22.9,96.4-28.8,125.2
			c-0.9,4-4.2,5.7-7.5,5.7c-4.4,0-9.2-3.1-9.2-8.6c0-7,9.7-67.5,24-119.5c1.1-3.7,4-6.6,7.9-8.4c-6.6-0.7-13.2-0.9-19.8-0.9
			c-6.2,0-12.1,0.9-18,0.9c-2.6,0-3.7-1.5-3.7-3.5c0-5.1,5.7-13.4,10.6-14.1c5.9-0.9,12.3-1.1,18.9-1.1c11.4,0,23.3,0.9,34.3,0.9
			c6.8,0,13.4-1.3,19.1-1.3c3.7,0,5.5,4.4,5.5,9.2c0,5.1-2,10.3-6.2,11C335.5,73,331.7,73.2,328,73.2z"/>
		<path class="st2" d="M341.6,201.3c-0.7,4.8-4.4,7.3-8.1,7.3c-4.2,0-8.4-3.1-8.4-9.7c0-15.4,7.5-58.7,17.4-92.6
			c1.1-3.7,4.6-5.5,8.4-5.5c5.1,0,10.8,3.5,10.8,9.7c0,3.7-2.6,9.2-3.7,13.2c7.9-16.9,17.6-29.3,28.4-29.3c8.1,0,11.2,4.8,11.2,14.3
			c0,12.3-10.6,32.8-10.6,40.5c0,3.1,1.8,4.8,5.1,4.8c7.3,0,16.3-16.1,20-24.6c1.3-3.3,2.9-5.3,4.2-5.3c2.4,0,1.5,4.6,1.1,6.2
			c-3.3,12.5-16.1,32.3-31.2,32.3c-8.8,0-17.2-3.7-17.2-16.9c0-12.1,9.7-26.8,9.7-33.7c0-1.5-0.7-2.6-2.2-2.6
			c-7.5,0-25.5,31.5-31.2,68.6L341.6,201.3z"/>
		<path class="st2" d="M465,189.4c0,3.3,1.1,5.5,3.1,5.5c4.6,0,11.4-11.7,21.8-33c1.1-2.4,2.9-3.7,4-3.7c0.7,0,1.3,0.7,1.3,2.2
			c0,0.9-0.2,2.2-0.9,3.7c-3.1,7.7-16.9,43.8-33.9,43.8c-6.8,0-15-3.7-15-20.2c0-1.1,0-2.6,0.2-4.2c-7.3,15-15.6,24.4-22.7,24.4
			c-11.9,0-16.9-12.8-16.9-29.9c0-33.4,19.4-83.2,44.7-83.2c8.8,0,14.3,9.5,14.7,16.3h1.3c5.5,0,12.1,4.6,12.1,12.8
			c0,1.1,0,2.2-0.2,3.3C472.7,155.1,465,178.8,465,189.4z M452.9,147.6l7-31.7c0-3.7-0.7-8.4-5.9-8.4c-14.7,0-28.2,51.5-28.2,74.6
			c0,6.6,1.1,10.8,3.7,10.8C437.8,192.9,447.4,172,452.9,147.6z"/>
		<path class="st2" d="M509,187.2c0,6.4,1.5,10.8,5.7,10.8c6.8,0,15.2-19.8,22.7-41.8c-2.9-4.8-4.2-11.4-4.2-18.5
			c0-20.9,11.2-46.4,22.7-46.4c4,0,8.8,2.4,8.8,12.5c0,11.4-6.2,32.6-13.4,51.5c1.5,0.7,3.7,1.1,5.5,1.1c12.1,0,23.1-16.5,28.2-29
			c0.9-2.4,2-3.3,2.9-3.3c0.9,0,1.3,1.1,1.3,2.6c0,0.7,0,1.5-0.2,2.2c-4.6,15-17.8,36.3-35,36.3c-2.4,0-4.4-0.2-6.4-0.9
			c-10.1,23.5-23.8,43.6-38.1,43.6c-12.1,0-16.3-13.2-16.3-31.2c0-24.9,7.9-58.5,13.2-77.7c1.1-3.7,4.6-5.7,8.8-5.7
			c5.5,0,11.4,3.7,11.4,11.2C526.6,116.1,509,166.5,509,187.2z"/>
		<path class="st2" d="M630.5,45.7c5.7,3.3,9.7,7.5,9.7,22.2c0,30.4-16.7,87.3-43.3,84.7c-1.8,11.2-2.9,21.1-2.9,27.9
			c0,9.5,2.6,13.9,8.8,13.9c11.7,0,25.3-17.2,33-32.6c1.1-2.4,2.4-3.3,3.5-3.3c0.9,0,1.5,0.9,1.5,2.4c0,0.9-0.2,1.8-0.7,3.1
			c-6.8,16.9-25.7,44.4-44.7,44.4c-15,0-20-13.4-20-33.2c0-12.5,2-27.7,5.1-43.6c8.1-44,21.1-90.4,41.1-90.4
			C625.6,41.3,628.9,43.5,630.5,45.7z M597.7,147.4c17.8-14.5,30.1-62,30.1-87.8c0-3.5-0.2-6.8-0.7-9.5
			C619.3,52.6,604.5,107.1,597.7,147.4z"/>
		<path class="st2" d="M651.6,201.3c-0.9,4.8-4.4,7.3-8.1,7.3c-4.2,0-8.4-3.1-8.4-9.7c0-12.1,7.5-58.7,17.4-92.6
			c1.1-3.7,4.6-5.5,8.4-5.5c5.1,0,10.8,3.5,10.8,9.7c0,3.7-2.6,9.2-3.7,13.2c7.9-16.9,17.6-29.3,28.4-29.3c8.1,0,11.2,4.8,11.2,14.3
			c0,12.3-8.1,26.2-9.5,38.9c-0.4,4.8-3.7,7-7.7,7c-5.1,0-10.8-4.2-10.8-11.2c0-13.2,9-24.6,9-31.5c0-1.5-0.7-2.6-2.2-2.6
			c-7.5,0-25.5,31.5-31.2,68.6L651.6,201.3z"/>
	</g>
</g>
</svg>
