<?xml version="1.0" encoding="utf-8"?>
<!-- Generator: Adobe Illustrator 19.1.0, SVG Export Plug-In . SVG Version: 6.00 Build 0)  -->
<svg version="1.1" xmlns="http://www.w3.org/2000/svg" xmlns:xlink="http://www.w3.org/1999/xlink" x="0px" y="0px"
	 viewBox="0 0 960 250" style="enable-background:new 0 0 960 250;" xml:space="preserve">
<style type="text/css">
	.st0{display:none;}
	.st1{display:inline;fill:#29ABE2;}
	.st2{fill:#FFFFFF;}
</style>
<g id="Layer_2" class="st0">
	<rect x="-1.7" class="st1" width="961.7" height="250"/>
</g>
<g id="Layer_1">
	<g>
		<path class="st2" d="M230.1,208.3c-0.4,1.3-1.5,1.8-2.9,1.8c-5.1,0-14.1-9.5-14.1-20.9c0-28.4,14.3-81.4,14.3-118.8
			c0-8.4-1.5-11.9-4.8-13.2c-15,0.7-37.2,46-37.2,73.3c0,9.7,2.9,17.2,10.1,19.1c2.4,0.7,3.5,2,3.5,3.1c0,1.1-1.3,2.2-4.2,2.2
			c-18.5,0-25.7-18.3-25.7-33c0-30.6,24.4-70.8,49.5-70.8c13,0,26.8,7.3,26.8,26.2c0,26.2-9.2,77.2-13.2,108.5
			c12.5-32.8,38.5-88.2,45.3-129.6c0.7-3.5,3.7-5.3,7.7-5.3c5.7,0,12.5,4,12.5,11.2c0,0.9,0,2-0.2,2.9
			C289.3,101.2,241.1,175.8,230.1,208.3z"/>
		<path class="st2" d="M306,186.1c0,4.6,1.1,7.3,4,7.3c8.1,0,20.2-26.6,22.7-31.5c1.3-2.4,2.6-3.7,3.7-3.7c0.9,0,1.5,0.9,1.5,2.2
			c0,1.1-0.2,2.2-0.9,3.7c-3.1,7.7-15.8,43.8-34.3,43.8c-8.6,0-15.8-6.2-15.8-22.7c0-13.2,8.4-53.9,17.2-86.2
			c1.1-3.7,4.6-5.7,8.8-5.7c5.5,0,11.4,3.7,11.4,11.2C324.2,116.1,306,169.2,306,186.1z M306.4,72.6c0-9.5,7.7-21.8,19.8-21.8
			c9,0,13,5.3,13,11.4c0,9.2-9,20.9-22.9,20.9C309.5,83.1,306.4,78.3,306.4,72.6z"/>
		<path class="st2" d="M319,185c0-6.8,4.4-15.8,12.3-14.1c11-16.7,22.9-41.6,29.3-55.2c-2.2-5.9-3.3-11.9-3.3-17.6
			c0-14.7,6.8-26.6,15.2-26.6c5.3,0,8.1,3.7,8.1,9.9c0,8.1-4.6,20.9-13.9,35.6c4.8,15.8,16.9,37.6,16.9,55.2
			c0,7.7-1.5,15.2-5.3,21.6c8.8-6.6,11.9-15,21.6-31.9c1.3-2.4,2.6-3.5,3.7-3.5c0.9,0,1.3,0.9,1.3,2.4c0,0.9-0.2,2-0.7,3.3
			c-11.4,28.2-23.8,44-52.1,44C327.5,208.1,319,195.6,319,185z M336.8,174c2.4,2.6,2.2,6.8,2.2,17.8c0,7.3,2.4,11.2,7.7,11.2
			c7.3,0,16.1-7.5,16.1-35.2c0-7.5-0.9-22.4-1.5-35.9C354.2,148.3,343.4,164.3,336.8,174z"/>
		<path class="st2" d="M462,189.4c0,3.3,1.1,5.5,3.1,5.5c4.6,0,11.4-11.7,21.8-33c1.1-2.4,2.9-3.7,4-3.7c0.7,0,1.3,0.7,1.3,2.2
			c0,0.9-0.2,2.2-0.9,3.7c-3.1,7.7-16.9,43.8-33.9,43.8c-6.8,0-15-3.7-15-20.2c0-1.1,0-2.6,0.2-4.2c-7.3,15-15.6,24.4-22.7,24.4
			c-11.9,0-16.9-12.8-16.9-29.9c0-33.4,19.4-83.2,44.7-83.2c8.8,0,14.3,9.5,14.7,16.3h1.3c5.5,0,12.1,4.6,12.1,12.8
			c0,1.1,0,2.2-0.2,3.3C469.7,155.1,462,178.8,462,189.4z M449.9,147.6l7-31.7c0-3.7-0.7-8.4-5.9-8.4c-14.7,0-28.2,51.5-28.2,74.6
			c0,6.6,1.1,10.8,3.7,10.8C434.7,192.9,444.4,172,449.9,147.6z"/>
		<path class="st2" d="M508.4,183.7c0,5.9,1.5,9.2,4.8,9.2c12.8,0,21.1-42.5,31-88c1.5-7.3,6.8-10.6,12.1-10.6c4.8,0,9.5,3.3,9.5,9
			c0,8.8-18.5,70.4-18.5,85.6c0,4,0.9,5.9,2.9,5.9c7.9,0,21.3-28.2,23.8-33c1.3-2.6,2.6-3.7,3.7-3.7c0.9,0,1.5,0.7,1.5,2.2
			c0,0.9-0.2,2.2-0.9,3.7c-3.1,7.7-17.4,43.8-35.9,43.8c-6.6,0-14.5-3.5-15-18.5c-5.9,11.4-13.2,18.5-22.2,18.5
			c-12.3,0-16.5-9.5-16.5-23.5c0-21.3,9.2-53.2,13.6-79.6c1.1-6.8,6.8-9.9,11.9-9.9c4.8,0,9.5,2.9,9.5,8.1c0,0.7,0,1.5-0.2,2.2
			C516.5,140.1,508.4,169.4,508.4,183.7z"/>
		<path class="st2" d="M635.5,185.5c0,5.9,1.3,9.2,4.4,9.2c7.7,0,16.9-20.7,22.9-32.8c1.1-2.4,2.9-3.7,4-3.7c0.9,0,1.3,0.9,1.3,2.2
			c0,0.9-0.2,2.2-0.9,3.7c-5.5,13.4-14.3,43.8-35.9,43.8c-8.8,0-13.9-9.5-13.9-22.7c0-0.7,0-2,0.2-3.3c-7.5,16.1-16.3,26-23.8,26
			c-11.9,0-16.9-12.8-16.9-29.9c0-33.4,19.4-83.2,44.7-83.2c5.9,0,9.5,5.3,11.4,10.6c4.6-20.7,9.7-40.5,13-52.6
			c0.9-3.3,3.7-4.8,7-4.8c5.5,0,12.1,4.4,12.1,12.5C665.2,74.8,635.5,159.9,635.5,185.5z M631.1,114.4c-0.2-2.9-1.3-6.8-6.2-6.8
			c-14.7,0-28.2,51.5-28.2,74.6c0,6.6,1.1,10.8,3.7,10.8c8.8,0,17.4-22,24-48.4C626.5,135.1,628.7,124.7,631.1,114.4z"/>
		<path class="st2" d="M683.3,186.1c0,4.6,1.1,7.3,4,7.3c8.1,0,20.2-26.6,22.7-31.5c1.3-2.4,2.6-3.7,3.7-3.7c0.9,0,1.5,0.9,1.5,2.2
			c0,1.1-0.2,2.2-0.9,3.7c-3.1,7.7-15.8,43.8-34.3,43.8c-8.6,0-15.8-6.2-15.8-22.7c0-13.2,8.4-53.9,17.2-86.2
			c1.1-3.7,4.6-5.7,8.8-5.7c5.5,0,11.4,3.7,11.4,11.2C701.5,116.1,683.3,169.2,683.3,186.1z M683.7,72.6c0-9.5,7.7-21.8,19.8-21.8
			c9,0,13,5.3,13,11.4c0,9.2-9,20.9-22.9,20.9C686.8,83.1,683.7,78.3,683.7,72.6z"/>
		<path class="st2" d="M733,118.8c4.4-13.6,15.4-24.4,28.8-24.4c17.6,0,24.9,15,24.9,34.1c0,33.4-22,79.6-48,79.6
			c-17.6,0-24.9-16.5-24.9-36.7c0-16.3,4.2-32.1,9.9-44.2C725.7,122.8,729,119,733,118.8z M745.1,124.1c0.4,0.4,1.3,2.2,0.7,2.9
			c-7.5,11.4-13.2,33.4-13.2,49.9c0,11.9,3.1,20.7,10.3,20.7c11.4,0,24.9-44.4,24.9-75c0-11.2-2-19.8-7.3-19.8
			C755.7,102.7,748.4,112.8,745.1,124.1z"/>
	</g>
</g>
</svg>
