<?xml version="1.0" encoding="utf-8"?>
<!-- Generator: Adobe Illustrator 19.1.0, SVG Export Plug-In . SVG Version: 6.00 Build 0)  -->
<svg version="1.1" id="Layer_1" xmlns="http://www.w3.org/2000/svg" xmlns:xlink="http://www.w3.org/1999/xlink" x="0px" y="0px"
	 viewBox="-424 104 110 43" style="enable-background:new -424 104 110 43;" xml:space="preserve">
<style type="text/css">
	.st0{fill:#797979;}
	.st1{fill:#F59925;}
	.st2{fill:#FFFFFF;}
</style>
<g>
	<path class="st0" d="M-373.5,119.9c-0.8,0-1.6-0.1-2.5-0.1c0.1,0.2,0.1,0.5,0,0.7c-2.4,9.5-3.4,14.5-4.3,18.9
		c-0.1,0.6-0.6,0.9-1.1,0.9c-0.7,0-1.4-0.5-1.4-1.3c0-1.1,1.5-10.2,3.6-18c0.2-0.6,0.6-1,1.2-1.3c-1-0.1-2-0.1-3-0.1
		c-0.9,0-1.8,0.1-2.7,0.1c-0.4,0-0.6-0.2-0.6-0.5c0-0.8,0.9-2,1.6-2.1c0.9-0.1,1.9-0.2,2.8-0.2c1.7,0,3.5,0.1,5.2,0.1
		c1,0,2-0.2,2.9-0.2c0.6,0,0.8,0.7,0.8,1.4c0,0.8-0.3,1.6-0.9,1.7C-372.4,119.8-373,119.9-373.5,119.9z"/>
	<path class="st0" d="M-372.1,139.1c-0.1,0.7-0.7,1.1-1.2,1.1c-0.6,0-1.3-0.5-1.3-1.5c0-2.3,1.1-8.8,2.6-13.9
		c0.2-0.6,0.7-0.8,1.3-0.8c0.8,0,1.6,0.5,1.6,1.5c0,0.6-0.4,1.4-0.6,2c1.2-2.6,2.6-4.4,4.3-4.4c1.2,0,1.7,0.7,1.7,2.2
		c0,1.9-1.6,4.9-1.6,6.1c0,0.5,0.3,0.7,0.8,0.7c1.1,0,2.5-2.4,3-3.7c0.2-0.5,0.4-0.8,0.6-0.8c0.4,0,0.2,0.7,0.2,0.9
		c-0.5,1.9-2.4,4.9-4.7,4.9c-1.3,0-2.6-0.6-2.6-2.6c0-1.8,1.5-4,1.5-5.1c0-0.2-0.1-0.4-0.3-0.4c-1.1,0-3.8,4.7-4.7,10.3
		L-372.1,139.1z"/>
	<path class="st0" d="M-354.2,137.4c0,0.5,0.2,0.8,0.5,0.8c0.7,0,1.7-1.8,3.3-5c0.2-0.4,0.4-0.6,0.6-0.6c0.1,0,0.2,0.1,0.2,0.3
		c0,0.1,0,0.3-0.1,0.6c-0.5,1.2-2.6,6.6-5.1,6.6c-1,0-2.3-0.6-2.3-3c0-0.2,0-0.4,0-0.6c-1.1,2.3-2.4,3.7-3.4,3.7
		c-1.8,0-2.6-1.9-2.6-4.5c0-5,2.9-12.5,6.7-12.5c1.3,0,2.2,1.4,2.2,2.5h0.2c0.8,0,1.8,0.7,1.8,1.9c0,0.2,0,0.3,0,0.5
		C-353.1,132.2-354.2,135.8-354.2,137.4z M-356,131.1l1.1-4.8c0-0.6-0.1-1.3-0.9-1.3c-2.2,0-4.2,7.8-4.2,11.2c0,1,0.2,1.6,0.6,1.6
		C-358.3,137.9-356.9,134.7-356,131.1z"/>
	<path class="st0" d="M-348.3,137c0,1,0.2,1.6,0.9,1.6c1,0,2.3-3,3.4-6.3c-0.4-0.7-0.6-1.7-0.6-2.8c0-3.1,1.7-7,3.4-7
		c0.6,0,1.3,0.4,1.3,1.9c0,1.7-0.9,4.9-2,7.8c0.2,0.1,0.6,0.2,0.8,0.2c1.8,0,3.5-2.5,4.2-4.4c0.1-0.4,0.3-0.5,0.4-0.5
		s0.2,0.2,0.2,0.4c0,0.1,0,0.2,0,0.3c-0.7,2.3-2.7,5.5-5.3,5.5c-0.4,0-0.7,0-1-0.1c-1.5,3.5-3.6,6.6-5.7,6.6c-1.8,0-2.5-2-2.5-4.7
		c0-3.7,1.2-8.8,2-11.7c0.2-0.6,0.7-0.9,1.3-0.9c0.8,0,1.7,0.6,1.7,1.7C-345.6,126.3-348.3,133.9-348.3,137z"/>
	<path class="st0" d="M-330.6,115.7c0.9,0.5,1.5,1.1,1.5,3.3c0,4.6-2.5,13.2-6.5,12.8c-0.3,1.7-0.4,3.2-0.4,4.2
		c0,1.4,0.4,2.1,1.3,2.1c1.8,0,3.8-2.6,5-4.9c0.2-0.4,0.4-0.5,0.5-0.5c0.1,0,0.2,0.1,0.2,0.4c0,0.1,0,0.3-0.1,0.5
		c-1,2.6-3.9,6.7-6.7,6.7c-2.3,0-3-2-3-5c0-1.9,0.3-4.2,0.8-6.6c1.2-6.6,3.2-13.6,6.2-13.6C-331.4,115.1-330.9,115.4-330.6,115.7z
		 M-335.6,131c2.7-2.2,4.5-9.3,4.5-13.2c0-0.5,0-1-0.1-1.4C-332.3,116.7-334.5,125-335.6,131z"/>
	<path class="st0" d="M-328.1,139.1c-0.1,0.7-0.7,1.1-1.2,1.1c-0.6,0-1.3-0.5-1.3-1.5c0-1.8,1.1-8.8,2.6-13.9
		c0.2-0.6,0.7-0.8,1.3-0.8c0.8,0,1.6,0.5,1.6,1.5c0,0.6-0.4,1.4-0.6,2c1.2-2.6,2.6-4.4,4.3-4.4c1.2,0,1.7,0.7,1.7,2.2
		c0,1.9-1.2,3.9-1.4,5.9c-0.1,0.7-0.6,1.1-1.2,1.1c-0.8,0-1.6-0.6-1.6-1.7c0-2,1.4-3.7,1.4-4.7c0-0.2-0.1-0.4-0.3-0.4
		c-1.1,0-3.8,4.7-4.7,10.3L-328.1,139.1z"/>
</g>
<g id="orange">
	<g>
		<path class="st1" d="M-401.3,110.3c-7.4,0-13.4,6-13.4,13.4c0,7.4,13.4,16.9,13.4,16.9s13.4-9.5,13.4-16.9
			C-387.9,116.3-393.9,110.3-401.3,110.3z"/>
	</g>
</g>
<g id="circle">
	<g>
		<circle class="st2" cx="-401.3" cy="123.9" r="6.2"/>
	</g>
</g>
</svg>
